0
SECTION
2
HEADER
9
$INSUNITS
70
4
9
$ACADVER
1
AC1014
9
$HANDSEED
5
FFFF
0
ENDSEC
0
SECTION
2
TABLES
0
TABLE
2
VPORT
5
8
100
AcDbSymbolTable
0
ENDTAB
0
TABLE
2
LTYPE
5
5
100
AcDbSymbolTable
0
LTYPE
5
14
100
AcDbSymbolTableRecord
100
AcDbLinetypeTableRecord
2
BYBLOCK
70
0
0
LTYPE
5
15
100
AcDbSymbolTableRecord
100
AcDbLinetypeTableRecord
2
BYLAYER
70
0
0
LTYPE
5
16
100
AcDbSymbolTableRecord
100
AcDbLinetypeTableRecord
2
DASHED
70
0
3
Dashed __ __ __ __ __ __ __ __ __ __ __ __ __ _
72
65
73
2
40
0.75
49
0.5
74
0
49
-0.25
74
0
0
ENDTAB
0
TABLE
2
LAYER
5
2
100
AcDbSymbolTable
70
2
0
LAYER
5
50
100
AcDbSymbolTableRecord
100
AcDbLayerTableRecord
2
0
70
0
62
7
6
CONTINUOUS
0
ENDTAB
0
TABLE
2
STYLE
5
3
100
AcDbSymbolTable
70
1
0
STYLE
5
11
100
AcDbSymbolTableRecord
100
AcDbTextStyleTableRecord
2
STANDARD
70
0
0
ENDTAB
0
TABLE
2
VIEW
5
6
100
AcDbSymbolTable
70
0
0
ENDTAB
0
TABLE
2
UCS
5
7
100
AcDbSymbolTable
70
0
0
ENDTAB
0
TABLE
2
APPID
5
9
100
AcDbSymbolTable
70
2
0
APPID
5
12
100
AcDbSymbolTableRecord
100
AcDbRegAppTableRecord
2
ACAD
70
0
0
ENDTAB
0
TABLE
2
DIMSTYLE
5
A
100
AcDbSymbolTable
70
1
0
ENDTAB
0
TABLE
2
BLOCK_RECORD
5
1
100
AcDbSymbolTable
70
1
0
BLOCK_RECORD
5
1F
100
AcDbSymbolTableRecord
100
AcDbBlockTableRecord
2
*MODEL_SPACE
0
BLOCK_RECORD
5
1B
100
AcDbSymbolTableRecord
100
AcDbBlockTableRecord
2
*PAPER_SPACE
0
ENDTAB
0
ENDSEC
0
SECTION
2
BLOCKS
0
BLOCK
5
20
100
AcDbEntity
100
AcDbBlockBegin
2
*MODEL_SPACE
0
ENDBLK
5
21
100
AcDbEntity
100
AcDbBlockEnd
0
BLOCK
5
1C
100
AcDbEntity
100
AcDbBlockBegin
2
*PAPER_SPACE
0
ENDBLK
5
1D
100
AcDbEntity
100
AcDbBlockEnd
0
ENDSEC
0
SECTION
2
ENTITIES
0
SPLINE
5
100
100
AcDbEntity
8
0
100
AcDbSpline
70
0
71
3
72
10
73
6
74
0
42
0.000000001
43
0.0000000001
44
0.0000000001
40
-0.41074336553138668
40
-0.41074336553138668
40
-0.41074336553138668
40
-0.41074336553138668
40
-0.20968804964878937
40
-0.20968804964878937
40
0
40
0
40
0
40
0
10
-28.514980464501445
20
1.4749163840821611
30
0
10
-29.051409518973983
20
1.8767436658753378
30
0
10
-29.595239764816604
20
2.2675617029506574
30
0
10
-30.722959982548716
20
3.0440496597267783
30
0
10
-31.306468444650591
20
3.4280202031375899
30
0
10
-31.898326742487523
20
3.7998387990035232
30
0
0
LINE
5
101
100
AcDbEntity
8
0
100
AcDbLine
10
-28.514980464501445
20
1.4749163840821611
30
0
11
-28.520334715488545
21
1.4739722851716441
31
0
0
LINE
5
102
100
AcDbEntity
8
0
100
AcDbLine
10
-28.520334715488545
20
1.4739722851716441
30
0
11
-22.681997348232514
21
-8.2508208803680319
31
0
0
LINE
5
103
100
AcDbEntity
8
0
100
AcDbLine
10
-22.681997348232514
20
-8.2508208803680319
30
0
11
-23.304262637851465
21
-15.388339562330755
31
0
0
LINE
5
104
100
AcDbEntity
8
0
100
AcDbLine
10
-23.304262637851465
20
-15.388339562330755
30
0
11
-30.743525517260494
21
-7.3144773655769146
31
0
0
SPLINE
5
105
100
AcDbEntity
8
0
100
AcDbSpline
70
0
71
3
72
10
73
6
74
0
42
0.000000001
43
0.0000000001
44
0.0000000001
40
-1.1139645614106752
40
-1.1139645614106752
40
-1.1139645614106752
40
-1.1139645614106752
40
-0.51921960557021374
40
-0.51921960557021374
40
0
40
0
40
0
40
0
10
-31.898326742487523
20
3.7998387990035232
30
0
10
-31.924827878156393
20
1.8115697575117733
30
0
10
-31.846621125516002
20
-0.19683341200364107
30
0
10
-31.453651640573518
20
-3.8957337063704545
30
0
10
-31.16558390887517
20
-5.635995898845171
30
0
10
-30.743525517260494
20
-7.3144773655769146
30
0
0
LINE
5
106
100
AcDbEntity
8
0
100
AcDbLine
10
11.236810661150574
20
-34.500000000000007
30
0
11
14.69487443695677
21
-34.500000000000007
31
0
0
LINE
5
107
100
AcDbEntity
8
0
100
AcDbLine
10
14.69487443695677
20
-34.500000000000007
30
0
11
15.002459198660191
21
-33.029970500380308
31
0
0
LINE
5
108
100
AcDbEntity
8
0
100
AcDbLine
10
15.002459198660191
20
-33.029970500380308
30
0
11
23.738621781114425
21
-27.883500973448598
31
0
0
LINE
5
109
100
AcDbEntity
8
0
100
AcDbLine
10
23.738621781114425
20
-27.883500973448598
30
0
11
27.172240479788773
21
-21.936298933526114
31
0
0
LINE
5
110
100
AcDbEntity
8
0
100
AcDbLine
10
27.172240479788773
20
-21.936298933526114
30
0
11
15.942990539596234
21
-28.54492056841352
31
0
0
LINE
5
111
100
AcDbEntity
8
0
100
AcDbLine
10
15.942990539596234
20
-28.54492056841352
30
0
11
17.410894594587948
21
-21.540043490931179
31
0
0
LINE
5
112
100
AcDbEntity
8
0
100
AcDbLine
10
17.410894594587948
20
-21.540043490931179
30
0
11
25.52742653570284
21
-14.179934352040393
31
0
0
SPLINE
5
113
100
AcDbEntity
8
0
100
AcDbSpline
70
0
71
3
72
10
73
6
74
0
42
0.000000001
43
0.0000000001
44
0.0000000001
40
-0.47175473274237512
40
-0.47175473274237512
40
-0.47175473274237512
40
-0.47175473274237512
40
-0.23010503277170988
40
-0.23010503277170988
40
0
40
0
40
0
40
0
10
30.015592424938564
20
-12.727141389890937
30
0
10
29.238670647336782
20
-12.939903182411017
30
0
10
28.465579099264474
20
-13.169811877695441
30
0
10
26.96960292061339
20
-13.654531437075901
30
0
10
26.244654664555366
20
-13.908091482530299
30
0
10
25.527426535702844
20
-14.179934352040391
30
0
0
LINE
5
114
100
AcDbEntity
8
0
100
AcDbLine
10
30.015592424938564
20
-12.727141389890937
30
0
11
30.378043170277188
21
-16.383685794559181
31
0
0
LINE
5
115
100
AcDbEntity
8
0
100
AcDbLine
10
30.378043170277188
20
-16.383685794559181
30
0
11
39.837168574084167
21
-2.6645352591003757e-14
31
0
0
LINE
5
116
100
AcDbEntity
8
0
100
AcDbLine
10
39.837168574084167
20
-2.6645352591003757e-14
30
0
11
19.918584287042119
21
34.499999999999972
31
0
0
LINE
5
117
100
AcDbEntity
8
0
100
AcDbLine
10
19.918584287042119
20
34.499999999999972
30
0
11
16.925666543226519
21
34.499999999996611
31
0
0
SPLINE
5
118
100
AcDbEntity
8
0
100
AcDbSpline
70
0
71
3
72
10
73
6
74
0
42
0.000000001
43
0.0000000001
44
0.0000000001
40
-0.88913340686550801
40
-0.88913340686550801
40
-0.88913340686550801
40
-0.88913340686550801
40
-0.47957782475594601
40
-0.47957782475594601
40
0
40
0
40
0
40
0
10
15.935904091191482
20
25.668237749207378
30
0
10
16.351085463000658
20
26.963225848242189
30
0
10
16.614176552181856
20
28.336748847918493
30
0
10
16.948755868615773
20
31.276399080014624
30
0
10
16.987779236521472
20
32.902614388729482
30
0
10
16.925666543226519
20
34.499999999996611
30
0
0
LINE
5
119
100
AcDbEntity
8
0
100
AcDbLine
10
15.935904091191482
20
25.668237749207378
30
0
11
9.3163486943720706
21
21.199873388312493
31
0
0
LINE
5
120
100
AcDbEntity
8
0
100
AcDbLine
10
9.3163486943720706
20
21.199873388312493
30
0
11
7.0306994725909799
21
29.204884720656246
31
0
0
SPLINE
5
121
100
AcDbEntity
8
0
100
AcDbSpline
70
0
71
3
72
10
73
6
74
0
42
0.000000001
43
0.0000000001
44
0.0000000001
40
-0.62698750902101019
40
-0.62698750902101019
40
-0.62698750902101019
40
-0.62698750902101019
40
-0.29369306396080141
40
-0.29369306396080141
40
0
40
0
40
0
40
0
10
10.411025641984359
20
34.499999999902926
30
0
10
9.7056855124620824
20
33.640188040658138
30
0
10
9.0342615903585308
20
32.73412627304991
30
0
10
7.9093105744767325
20
30.971505869506267
30
0
10
7.4258369733548335
20
30.100575563977085
30
0
10
7.0306994725909799
20
29.204884720656246
30
0
0
LINE
5
122
100
AcDbEntity
8
0
100
AcDbLine
10
10.411025641984359
20
34.499999999902926
30
0
11
-19.91858428704208
21
34.5
31
0
0
LINE
5
123
100
AcDbEntity
8
0
100
AcDbLine
10
-19.91858428704208
20
34.5
30
0
11
-39.837168574084181
21
4.4408920985006262e-15
31
0
0
LINE
5
124
100
AcDbEntity
8
0
100
AcDbLine
10
-39.837168574084181
20
4.4408920985006262e-15
30
0
11
-33.809352716332477
21
-10.44048332430172
31
0
0
SPLINE
5
125
100
AcDbEntity
8
0
100
AcDbSpline
70
0
71
3
72
10
73
6
74
0
42
0.000000001
43
0.0000000001
44
0.0000000001
40
-0.23733710093527111
40
-0.23733710093527111
40
-0.23733710093527111
40
-0.23733710093527111
40
-0.12028356389534559
40
-0.12028356389534559
40
0
40
0
40
0
40
0
10
-31.622422593073342
20
-11.363196128293707
30
0
10
-31.978114354177841
20
-11.202728101726002
30
0
10
-32.336012185593972
20
-11.046860292085146
30
0
10
-33.064996272913028
20
-10.739419826983262
30
0
10
-33.43650882508031
20
-10.587943476787443
30
0
10
-33.809352716332477
20
-10.44048332430172
30
0
0
LINE
5
126
100
AcDbEntity
8
0
100
AcDbLine
10
-31.622422593073342
20
-11.363196128293707
30
0
11
-23.701425789438439
21
-19.950220900527142
31
0
0
LINE
5
127
100
AcDbEntity
8
0
100
AcDbLine
10
-23.701425789438439
20
-19.950220900527142
30
0
11
-24.311531337630427
21
-26.891192513421164
31
0
0
LINE
5
128
100
AcDbEntity
8
0
100
AcDbLine
10
-24.311531337630427
20
-26.891192513421164
30
0
11
-19.918584287042105
21
-34.499999999999986
31
0
0
LINE
5
129
100
AcDbEntity
8
0
100
AcDbLine
10
-19.918584287042105
20
-34.499999999999986
30
0
11
-5.3933140607673957
21
-34.5
31
0
0
SPLINE
5
130
100
AcDbEntity
8
0
100
AcDbSpline
70
0
71
3
72
10
73
6
74
0
42
0.000000001
43
0.0000000001
44
0.0000000001
40
-1.9548151761947441
40
-1.9548151761947441
40
-1.9548151761947441
40
-1.9548151761947441
40
-0.98626407340272915
40
-0.98626407340272915
40
0
40
0
40
0
40
0
10
-3.5910596474768619
20
-15.078272136045253
30
0
10
-4.1342908909131753
20
-18.261426147776273
30
0
10
-4.5669739048966518
20
-21.452785443189089
30
0
10
-5.1840144064961624
20
-27.940328905780582
30
0
10
-5.361315542141031
20
-31.212608817149547
30
0
10
-5.3933140607673931
20
-34.5
30
0
0
ARC
5
131
100
AcDbEntity
8
0
100
AcDbCircle
10
0
20
0
30
0
40
15.5
210
0
220
0
230
1
100
AcDbArc
50
238.21401253431441
51
256.60392477408226
0
SPLINE
5
132
100
AcDbEntity
8
0
100
AcDbSpline
70
0
71
3
72
16
73
12
74
0
42
0.000000001
43
0.0000000001
44
0.0000000001
40
-3.2766925472485271
40
-3.2766925472485271
40
-3.2766925472485271
40
-3.2766925472485271
40
-2.9926884567413263
40
-2.9926884567413263
40
-2.706228233405787
40
-2.706228233405787
40
-2.1296213037294276
40
-2.1296213037294276
40
-1.297597365239161
40
-1.297597365239161
40
0
40
0
40
0
40
0
10
-20.993948840971271
20
-27.806126321753943
30
0
10
-20.530890282706622
20
-27.941983204136047
30
0
10
-20.056592261482756
20
-28.018686828897664
30
0
10
-19.087794252840837
20
-28.048028775194425
30
0
10
-18.605107697198836
20
-27.999234099247428
30
0
10
-17.17379295965597
20
-27.679231968829583
30
0
10
-16.284984927036689
20
-27.241707416529458
30
0
10
-14.323467090490997
20
-25.859629325316817
30
0
10
-13.200644452163417
20
-24.675536459403183
30
0
10
-10.55177161978839
20
-20.702041122669044
30
0
10
-9.1524383619424601
20
-17.386343965745738
30
0
10
-8.1645936211047392
20
-13.175335151016387
30
0
0
LINE
5
133
100
AcDbEntity
8
0
100
AcDbLine
10
-20.993948840971271
20
-27.806126321753943
30
0
11
-20.330177583155375
21
-20.25274161603301
31
0
0
LINE
5
134
100
AcDbEntity
8
0
100
AcDbLine
10
-20.330177583155375
20
-20.25274161603301
30
0
11
-11.403834322007844
21
-13.439964726501028
31
0
0
SPLINE
5
135
100
AcDbEntity
8
0
100
AcDbSpline
70
0
71
3
72
10
73
6
74
0
42
0.000000001
43
0.0000000001
44
0.0000000001
40
-0.27258843116841552
40
-0.27258843116841552
40
-0.27258843116841552
40
-0.27258843116841552
40
-0.13413575012970649
40
-0.13413575012970649
40
0
40
0
40
0
40
0
10
-8.7568744670941214
20
-12.789337383643868
30
0
10
-9.2079650745401036
20
-12.886840437328797
30
0
10
-9.6578568129560605
20
-12.99053526721038
30
0
10
-10.540190717991507
20
-13.207537984178884
30
0
10
-10.972969848412435
20
-13.320501949952543
30
0
10
-11.403834322007844
20
-13.439964726501028
30
0
0
ARC
5
136
100
AcDbEntity
8
0
100
AcDbCircle
10
0
20
0
30
0
40
15.500000000000004
210
0
220
0
230
1
100
AcDbArc
50
218.75897094772066
51
235.60051119627005
0
LINE
5
137
100
AcDbEntity
8
0
100
AcDbLine
10
-12.086690301805458
20
-9.7037063820089884
30
0
11
-19.933931322837033
21
-15.685692180087031
31
0
0
LINE
5
138
100
AcDbEntity
8
0
100
AcDbLine
10
-19.933931322837033
20
-15.685692180087031
30
0
11
-19.31172846091815
21
-8.547819453043779
31
0
0
LINE
5
139
100
AcDbEntity
8
0
100
AcDbLine
10
-19.31172846091815
20
-8.547819453043779
30
0
11
-15.061798321731368
21
-3.6595397682618733
31
0
0
ARC
5
140
100
AcDbEntity
8
0
100
AcDbCircle
10
0
20
0
30
0
40
15.5
210
0
220
0
230
1
100
AcDbArc
50
176.13663300550206
51
193.65643395040127
0
LINE
5
141
100
AcDbEntity
8
0
100
AcDbLine
10
-15.464777205011625
20
1.0443495580277846
30
0
11
-20.694118468116866
21
-4.979724798730679
31
0
0
LINE
5
142
100
AcDbEntity
8
0
100
AcDbLine
10
-20.694118468116866
20
-4.979724798730679
30
0
11
-24.977990906805665
21
2.1611531180916188
31
0
0
SPLINE
5
143
100
AcDbEntity
8
0
100
AcDbSpline
70
0
71
3
72
10
73
6
74
0
42
0.000000001
43
0.0000000001
44
0.0000000001
40
-1.4327336098800041
40
-1.4327336098800041
40
-1.4327336098800041
40
-1.4327336098800041
40
-0.63378591286663
40
-0.63378591286663
40
0
40
0
40
0
40
0
10
-18.91793647947619
20
15.312292353167113
30
0
10
-20.457948532405513
20
13.11312928465123
30
0
10
-21.897001255964565
20
10.732472368805006
30
0
10
-23.897960337004154
20
6.3730399466160526
30
0
10
-24.654036692412816
20
4.2487871147919973
30
0
10
-24.977990906805665
20
2.1611531180916188
30
0
0
SPLINE
5
144
100
AcDbEntity
8
0
100
AcDbSpline
70
0
71
3
72
10
73
6
74
0
42
0.000000001
43
0.0000000001
44
0.0000000001
40
-1.5450260116899897
40
-1.5450260116899897
40
-1.5450260116899897
40
-1.5450260116899897
40
-0.8072046918267719
40
-0.8072046918267719
40
0
40
0
40
0
40
0
10
-15.452900747505378
20
1.2074181080909296
30
0
10
-15.378289220091517
20
3.1201245432768254
30
0
10
-15.619425099963522
20
5.3027891590093983
30
0
10
-16.818910564707714
20
10.286513477111463
30
0
10
-17.780845507884898
20
12.873687138166684
30
0
10
-18.91793647947619
20
15.312292353167113
30
0
0
ARC
5
145
100
AcDbEntity
8
0
100
AcDbCircle
10
0
20
0
30
0
40
15.499999999999998
210
0
220
0
230
1
100
AcDbArc
50
111.6204516947294
51
175.53225042090074
0
SPLINE
5
146
100
AcDbEntity
8
0
100
AcDbSpline
70
0
71
3
72
10
73
6
74
0
42
0.000000001
43
0.0000000001
44
0.0000000001
40
-0.50791376728866211
40
-0.50791376728866211
40
-0.50791376728866211
40
-0.50791376728866211
40
-0.24412873837236071
40
-0.24412873837236071
40
0
40
0
40
0
40
0
10
-4.909220903704119
20
19.4272812947865
30
0
10
-5.0990982535991183
20
18.568549654639035
30
0
10
-5.2658217556332101
20
17.702148780986306
30
0
10
-5.5318840143384076
20
16.029940469214079
30
0
10
-5.6360523268389562
20
15.219794741244794
30
0
10
-5.7110743826582695
20
14.409497860795424
30
0
0
SPLINE
5
147
100
AcDbEntity
8
0
100
AcDbSpline
70
0
71
3
72
10
73
6
74
0
42
0.000000001
43
0.0000000001
44
0.0000000001
40
-0.25511224009787692
40
-0.25511224009787692
40
-0.25511224009787692
40
-0.25511224009787692
40
-0.12934723830070555
40
-0.12934723830070555
40
0
40
0
40
0
40
0
10
-2.896595631750607
20
17.861423654914159
30
0
10
-3.2209025856194975
20
18.127142858196081
30
0
10
-3.5480003539798628
20
18.388647689484372
30
0
10
-4.2189119944399103
20
18.911222773823415
30
0
10
-4.5621577321212357
20
19.171461219130144
30
0
10
-4.909220903704119
20
19.4272812947865
30
0
0
LINE
5
148
100
AcDbEntity
8
0
100
AcDbLine
10
-2.896595631750607
20
17.861423654914159
30
0
11
-1.6132404419485358
21
15.415818345986752
31
0
0
ARC
5
149
100
AcDbEntity
8
0
100
AcDbCircle
10
0
20
0
30
0
40
15.5
210
0
220
-0
230
1
100
AcDbArc
50
81.634278956225742
51
95.974165665907151
0
LINE
5
150
100
AcDbEntity
8
0
100
AcDbLine
10
2.2551126693580716
20
15.335073095636053
30
0
11
-0.99714278344349871
21
21.537993744909212
31
0
0
SPLINE
5
151
100
AcDbEntity
8
0
100
AcDbSpline
70
0
71
3
72
10
73
6
74
0
42
0.000000001
43
0.0000000001
44
0.0000000001
40
-1.1146493187453732
40
-1.1146493187453732
40
-1.1146493187453732
40
-1.1146493187453732
40
-0.5195353639111856
40
-0.5195353639111856
40
0
40
0
40
0
40
0
10
0.76513341643863697
20
32.580344072535205
30
0
10
0.22455525127539719
20
30.665423191540139
30
0
10
-0.22016385097179386
20
28.703648529355799
30
0
10
-0.79841938973511761
20
25.026753060919283
30
0
10
-0.97079576238694332
20
23.269577860547127
30
0
10
-0.99714278344349871
20
21.537993744909212
30
0
0
SPLINE
5
152
100
AcDbEntity
8
0
100
AcDbSpline
70
0
71
3
72
10
73
6
74
0
42
0.000000001
43
0.0000000001
44
0.0000000001
40
-0.4111320528802857
40
-0.4111320528802857
40
-0.4111320528802857
40
-0.4111320528802857
40
-0.20987443206995501
40
-0.20987443206995501
40
0
40
0
40
0
40
0
10
3.4374876799993448
20
29.457416775644994
30
0
10
3.022969856898893
20
29.984882055295611
30
0
10
2.5972199440744155
20
30.503541975011945
30
0
10
1.706661370835389
20
31.545174433410597
30
0
10
1.2409010347440219
20
32.067450940498176
30
0
10
0.76513341643863697
20
32.580344072535205
30
0
0
LINE
5
153
100
AcDbEntity
8
0
100
AcDbLine
10
3.4374876799993448
20
29.457416775644994
30
0
11
3.4321334290122474
21
29.456472676734485
31
0
0
LINE
5
154
100
AcDbEntity
8
0
100
AcDbLine
10
3.4321334290122474
20
29.456472676734485
30
0
11
6.5504092046647289
21
18.555867128792503
31
0
0
LINE
5
155
100
AcDbEntity
8
0
100
AcDbLine
10
6.5504092046647289
20
18.555867128792503
30
0
11
5.1208286602156994
21
14.629665540698923
31
0
0
ARC
5
156
100
AcDbEntity
8
0
100
AcDbCircle
10
0
20
0
30
0
40
15.5
210
0
220
-0
230
1
100
AcDbArc
50
58.095614286841787
51
70.708398671837472
0
LINE
5
157
100
AcDbEntity
8
0
100
AcDbLine
10
8.1918014263081638
20
13.158434154257698
30
0
11
9.7334232813391672
21
17.397343566164366
31
0
0
LINE
5
158
100
AcDbEntity
8
0
100
AcDbLine
10
9.7334232813391672
20
17.397343566164366
30
0
11
18.799976520415335
21
23.516204590046708
31
0
0
SPLINE
5
159
100
AcDbEntity
8
0
100
AcDbSpline
70
0
71
3
72
10
73
6
74
0
42
0.000000001
43
0.0000000001
44
0.0000000001
40
-0.24104170648090417
40
-0.24104170648090417
40
-0.24104170648090417
40
-0.24104170648090417
40
-0.11891407419486442
40
-0.11891407419486442
40
0
40
0
40
0
40
0
10
21.161409275035474
20
23.984117500123578
30
0
10
20.760273950292078
20
23.915929030833727
30
0
10
20.361110226035727
20
23.841847324278266
30
0
10
19.573365103005045
20
23.684887647267686
30
0
10
19.18680497512311
20
23.602697636535176
30
0
10
18.799976520415331
20
23.516204590046708
30
0
0
SPLINE
5
160
100
AcDbEntity
8
0
100
AcDbSpline
70
0
71
3
72
10
73
6
74
0
42
0.000000001
43
0.0000000001
44
0.0000000001
40
-0.23210021503968797
40
-0.23210021503968797
40
-0.23210021503968797
40
-0.23210021503968797
40
-0.11472880038513415
40
-0.11472880038513415
40
0
40
0
40
0
40
0
10
23.4595058516142
20
24.320689969898059
30
0
10
23.071360450529607
20
24.271914088748115
30
0
10
22.682731954153823
20
24.21949509574338
30
0
10
21.917222186394582
20
24.107715017245116
30
0
10
21.538420028944909
20
24.048266447210253
30
0
10
21.161409275035474
20
23.984117500123578
30
0
0
SPLINE
5
161
100
AcDbEntity
8
0
100
AcDbSpline
70
0
71
3
72
10
73
6
74
0
42
0.000000001
43
0.0000000001
44
0.0000000001
40
-1.0760721844945613
40
-1.0760721844945613
40
-1.0760721844945613
40
-1.0760721844945613
40
-0.57263812253802382
40
-0.57263812253802382
40
0
40
0
40
0
40
0
10
17.9792575401307
20
15.055656424519537
30
0
10
19.017728081046286
20
16.368157304281905
30
0
10
19.967986676024996
20
17.78260708084445
30
0
10
21.797948791146126
20
20.862886538758225
30
0
10
22.676069313988997
20
22.580080668468376
30
0
10
23.4595058516142
20
24.320689969898059
30
0
0
LINE
5
162
100
AcDbEntity
8
0
100
AcDbLine
10
17.9792575401307
20
15.055656424519537
30
0
11
10.05434334796902
21
11.796617305022286
31
0
0
ARC
5
163
100
AcDbEntity
8
0
100
AcDbCircle
10
0
20
0
30
0
40
15.5
210
0
220
-0
230
1
100
AcDbArc
50
36.155630271449482
51
49.558801832163539
0
LINE
5
164
100
AcDbEntity
8
0
100
AcDbLine
10
12.514970225361795
20
9.1446990250257993
30
0
11
16.110555115702546
21
10.620225563707709
31
0
0
SPLINE
5
165
100
AcDbEntity
8
0
100
AcDbSpline
70
0
71
3
72
10
73
6
74
0
42
0.000000001
43
0.0000000001
44
0.0000000001
40
-0.34474818736390367
40
-0.34474818736390367
40
-0.34474818736390367
40
-0.34474818736390367
40
-0.16893656064268753
40
-0.16893656064268753
40
0
40
0
40
0
40
0
10
19.555911677520541
20
10.520501306908429
30
0
10
18.971034464276688
20
10.557344967707245
30
0
10
18.385513731208174
20
10.584430517645737
30
0
10
17.236824214639725
20
10.617249804427244
30
0
10
16.67366578287842
20
10.62377741444231
30
0
10
16.11055511570255
20
10.620225563707709
30
0
0
SPLINE
5
166
100
AcDbEntity
8
0
100
AcDbSpline
70
0
71
3
72
10
73
6
74
0
42
0.000000001
43
0.0000000001
44
0.0000000001
40
-0.8171389898871515
40
-0.8171389898871515
40
-0.8171389898871515
40
-0.8171389898871515
40
-0.43621547334844379
40
-0.43621547334844379
40
0
40
0
40
0
40
0
10
15.052235473280549
20
3.6986658493435915
30
0
10
15.878231304572321
20
4.6610749208134541
30
0
10
16.64261471969057
20
5.6926167819241211
30
0
10
18.147155623303867
20
7.9615026522784573
30
0
10
18.883768874099346
20
9.2311254723304685
30
0
10
19.555911677520541
20
10.520501306908429
30
0
0
ARC
5
167
100
AcDbEntity
8
0
100
AcDbCircle
10
0
20
0
30
0
40
15.500000000000004
210
-0
220
0
230
1
100
AcDbArc
50
-7.8767222441951352
51
13.80532083627879
0
ARC
5
168
100
AcDbEntity
8
0
100
AcDbCircle
10
26.543284884011488
20
-10.679530103084584
30
0
40
14.085450890733211
210
0
220
0
230
1
100
AcDbArc
50
114.79380630989392
51
142.59890050035006
0
SPLINE
5
169
100
AcDbEntity
8
0
100
AcDbSpline
70
0
71
3
72
10
73
6
74
0
42
0.000000001
43
0.0000000001
44
0.0000000001
40
-1.5628690469702566
40
-1.5628690469702566
40
-1.5628690469702566
40
-1.5628690469702566
40
-0.81725800568141838
40
-0.81725800568141838
40
0
40
0
40
0
40
0
10
22.372232415635249
20
-12.464225471444088
30
0
10
22.694043803883474
20
-10.565607442338161
30
0
10
22.727448143559805
20
-8.3503927092110839
30
0
10
22.139499819717233
20
-3.1997508802309236
30
0
10
21.486255576178266
20
-0.48070554391900555
30
0
10
20.636495429660169
20
2.1075635908405932
30
0
0
LINE
5
170
100
AcDbEntity
8
0
100
AcDbLine
10
22.372232415635249
20
-12.464225471444088
30
0
11
16.457042803254019
21
-17.826453108864065
31
0
0
LINE
5
171
100
AcDbEntity
8
0
100
AcDbLine
10
16.457042803254019
20
-17.826453108864065
30
0
11
12.546524528795601
21
-9.1013582639257926
31
0
0
ARC
5
172
100
AcDbEntity
8
0
100
AcDbCircle
10
0
20
0
30
0
40
15.500000000000005
210
-0
220
0
230
1
100
AcDbArc
50
310.40219240915047
51
324.04254148492009
0
LINE
5
173
100
AcDbEntity
8
0
100
AcDbLine
10
10.046310130351767
20
-11.803459355832576
30
0
11
14.095620787249242
21
-20.842095477072302
31
0
0
LINE
5
174
100
AcDbEntity
8
0
100
AcDbLine
10
14.095620787249242
20
-20.842095477072302
30
0
11
12.629905045021449
21
-27.85836385990034
31
0
0
LINE
5
175
100
AcDbEntity
8
0
100
AcDbLine
10
12.629905045021449
20
-27.85836385990034
30
0
11
6.1987595834919773
21
-18.945332332572171
31
0
0
SPLINE
5
176
100
AcDbEntity
8
0
100
AcDbSpline
70
0
71
3
72
10
73
6
74
0
42
0.000000001
43
0.0000000001
44
0.0000000001
40
-0.46257097718037832
40
-0.46257097718037832
40
-0.46257097718037832
40
-0.46257097718037832
40
-0.22354028314946339
40
-0.22354028314946339
40
0
40
0
40
0
40
0
10
5.9196394191514292
20
-14.325078382011904
30
0
10
5.9198200023388026
20
-15.122107177036796
30
0
10
5.9424040142018679
20
-15.921571383970951
30
0
10
6.0360483091434531
20
-17.460896728400165
30
0
10
6.104178662346305
20
-18.206225073535119
30
0
10
6.1987595834919773
20
-18.945332332572171
30
0
0
ARC
5
177
100
AcDbEntity
8
0
100
AcDbCircle
10
0
20
0
30
0
40
15.5
210
0
220
0
230
1
100
AcDbArc
50
269.14860846916503
51
292.45218032736614
0
SPLINE
5
178
100
AcDbEntity
8
0
100
AcDbSpline
70
0
71
3
72
10
73
6
74
0
42
0.000000001
43
0.0000000001
44
0.0000000001
40
-1.913238716050037
40
-1.913238716050037
40
-1.913238716050037
40
-1.913238716050037
40
-0.94936599199816085
40
-0.94936599199816085
40
0
40
0
40
0
40
0
10
-2.0077581608424668
20
-34.499999999953587
30
0
10
-1.9766333951412298
20
-31.287837208705088
30
0
10
-1.8022129401073448
20
-28.091559594040532
30
0
10
-1.1939509748219812
20
-21.743599814917655
30
0
10
-0.76647184651710032
20
-18.617092013393808
30
0
10
-0.23031509833521369
20
-15.498288785860026
30
0
0
LINE
5
179
100
AcDbEntity
8
0
100
AcDbLine
10
-2.0077581608424668
20
-34.499999999953587
30
0
11
4.1420756649736523
21
-34.499999999995254
31
0
0
SPLINE
5
180
100
AcDbEntity
8
0
100
AcDbSpline
70
0
71
3
72
10
73
6
74
0
42
0.000000001
43
0.0000000001
44
0.0000000001
40
-1.2910554454147949
40
-1.2910554454147949
40
-1.2910554454147949
40
-1.2910554454147949
40
-0.56500640980397654
40
-0.56500640980397654
40
0
40
0
40
0
40
0
10
2.6309103501194464
20
-21.604493244386298
30
0
10
2.4482269850254874
20
-24.036551868176605
30
0
10
2.4463452537820376
20
-26.550377202288939
30
0
10
2.9791532413351947
20
-30.840876532427579
30
0
10
3.4090349190637537
20
-32.765158166170984
30
0
10
4.1420756649736497
20
-34.499999999995254
30
0
0
SPLINE
5
181
100
AcDbEntity
8
0
100
AcDbSpline
70
0
71
3
72
10
73
6
74
0
42
0.000000001
43
0.0000000001
44
0.0000000001
40
-0.25485541521888483
40
-0.25485541521888483
40
-0.25485541521888483
40
-0.25485541521888483
40
-0.12924988521079678
40
-0.12924988521079678
40
0
40
0
40
0
40
0
10
4.8484941155193795
20
-22.864236397069178
30
0
10
4.4901920732808556
20
-22.64746178729094
30
0
10
4.1278129269435384
20
-22.435758263182045
30
0
10
3.3888634522362882
20
-22.016472304057586
30
0
10
3.0105195459180303
20
-21.80824282076944
30
0
10
2.6309103501194464
20
-21.604493244386298
30
0
0
LINE
5
182
100
AcDbEntity
8
0
100
AcDbLine
10
4.8484941155193795
20
-22.864236397069178
30
0
11
11.689050941272438
21
-32.337410827703991
31
0
0
LINE
5
183
100
AcDbEntity
8
0
100
AcDbLine
10
11.689050941272438
20
-32.337410827703991
30
0
11
11.236810661150574
21
-34.500000000000007
31
0
0
LWPOLYLINE
5
184
100
AcDbEntity
8
0
100
AcDbPolyline
90
6
70
1
43
0.0
10
-22.805335632990236
20
-39.499999999999986
10
22.805335632990193
20
-39.500000000000014
10
45.610671265980436
20
-3.3306690738754696e-14
10
22.80533563299025
20
39.499999999999979
10
-22.805335632990204
20
39.5
10
-45.610671265980436
20
1.3322676295501878e-14
0
CIRCLE
5
185
100
AcDbEntity
8
0
100
AcDbCircle
10
0
20
0
30
0
40
12.5
210
0
220
0
230
1
0
ENDSEC
0
SECTION
2
OBJECTS
0
DICTIONARY
5
C
100
AcDbDictionary
3
ACAD_GROUP
350
D
3
ACAD_MLINESTYLE
350
17
0
DICTIONARY
5
D
100
AcDbDictionary
0
DICTIONARY
5
1A
330
C
100
AcDbDictionary
0
DICTIONARY
5
17
100
AcDbDictionary
0
ENDSEC
0
EOF
