0
SECTION
2
HEADER
9
$INSUNITS
70
4
9
$ACADVER
1
AC1014
9
$HANDSEED
5
FFFF
0
ENDSEC
0
SECTION
2
TABLES
0
TABLE
2
VPORT
5
8
100
AcDbSymbolTable
0
ENDTAB
0
TABLE
2
LTYPE
5
5
100
AcDbSymbolTable
0
LTYPE
5
14
100
AcDbSymbolTableRecord
100
AcDbLinetypeTableRecord
2
BYBLOCK
70
0
0
LTYPE
5
15
100
AcDbSymbolTableRecord
100
AcDbLinetypeTableRecord
2
BYLAYER
70
0
0
LTYPE
5
16
100
AcDbSymbolTableRecord
100
AcDbLinetypeTableRecord
2
DASHED
70
0
3
Dashed __ __ __ __ __ __ __ __ __ __ __ __ __ _
72
65
73
2
40
0.75
49
0.5
74
0
49
-0.25
74
0
0
ENDTAB
0
TABLE
2
LAYER
5
2
100
AcDbSymbolTable
70
3
0
LAYER
5
50
100
AcDbSymbolTableRecord
100
AcDbLayerTableRecord
2
1
70
0
62
7
6
DASHED
0
LAYER
5
51
100
AcDbSymbolTableRecord
100
AcDbLayerTableRecord
2
0
70
0
62
7
6
CONTINUOUS
0
ENDTAB
0
TABLE
2
STYLE
5
3
100
AcDbSymbolTable
70
1
0
STYLE
5
11
100
AcDbSymbolTableRecord
100
AcDbTextStyleTableRecord
2
STANDARD
70
0
0
ENDTAB
0
TABLE
2
VIEW
5
6
100
AcDbSymbolTable
70
0
0
ENDTAB
0
TABLE
2
UCS
5
7
100
AcDbSymbolTable
70
0
0
ENDTAB
0
TABLE
2
APPID
5
9
100
AcDbSymbolTable
70
2
0
APPID
5
12
100
AcDbSymbolTableRecord
100
AcDbRegAppTableRecord
2
ACAD
70
0
0
ENDTAB
0
TABLE
2
DIMSTYLE
5
A
100
AcDbSymbolTable
70
1
0
ENDTAB
0
TABLE
2
BLOCK_RECORD
5
1
100
AcDbSymbolTable
70
1
0
BLOCK_RECORD
5
1F
100
AcDbSymbolTableRecord
100
AcDbBlockTableRecord
2
*MODEL_SPACE
0
BLOCK_RECORD
5
1B
100
AcDbSymbolTableRecord
100
AcDbBlockTableRecord
2
*PAPER_SPACE
0
ENDTAB
0
ENDSEC
0
SECTION
2
BLOCKS
0
BLOCK
5
20
100
AcDbEntity
100
AcDbBlockBegin
2
*MODEL_SPACE
0
ENDBLK
5
21
100
AcDbEntity
100
AcDbBlockEnd
0
BLOCK
5
1C
100
AcDbEntity
100
AcDbBlockBegin
2
*PAPER_SPACE
0
ENDBLK
5
1D
100
AcDbEntity
100
AcDbBlockEnd
0
ENDSEC
0
SECTION
2
ENTITIES
0
POINT
5
100
100
AcDbEntity
8
0
100
AcDbPoint
10
-486.07140383543032
20
-195.08628680842753
30
0
0
POINT
5
101
100
AcDbEntity
8
0
100
AcDbPoint
10
-552.07140383543037
20
-195.08628680842753
30
0
0
CIRCLE
5
102
100
AcDbEntity
8
0
100
AcDbCircle
10
-285.2151423237608
20
-228.02310728968851
30
0
40
7.5000000000000124
210
0
220
-0
230
1
0
CIRCLE
5
103
100
AcDbEntity
8
0
100
AcDbCircle
10
-260.2151423237608
20
-228.02310728968851
30
0
40
7.5000000000000124
210
0
220
-0
230
1
0
CIRCLE
5
104
100
AcDbEntity
8
0
100
AcDbCircle
10
-235.21514232376086
20
-228.02310728968854
30
0
40
7.5000000000000124
210
0
220
-0
230
1
0
CIRCLE
5
105
100
AcDbEntity
8
0
100
AcDbCircle
10
-210.21514232376086
20
-228.02310728968848
30
0
40
7.5000000000000124
210
0
220
-0
230
1
0
LWPOLYLINE
5
106
100
AcDbEntity
8
0
100
AcDbPolyline
90
40
70
1
43
0.0
10
-317.7151423237608
20
-242.6897739563552
10
-322.71514232376086
20
-242.6897739563552
10
-322.71514232376086
20
-264.68977395635522
10
-172.71514232376086
20
-264.68977395635522
10
-172.71514232376086
20
-242.68977395635517
10
-177.71514232376086
20
-242.68977395635517
10
-177.71514232376086
20
-220.68977395635514
10
-172.71514232376086
20
-220.68977395635514
10
-172.71514232376086
20
-198.68977395635508
10
-177.71514232376086
20
-198.68977395635508
10
-177.71514232376089
20
-176.68977395635505
10
-172.71514232376089
20
-176.68977395635505
10
-172.71514232376089
20
-159.68977395635503
10
-186.35150596012451
20
-159.68977395635503
10
-186.35150596012451
20
-154.689773956355
10
-199.98786959648814
20
-154.689773956355
10
-199.98786959648814
20
-159.689773956355
10
-213.62423323285179
20
-159.689773956355
10
-213.62423323285179
20
-154.68977395635503
10
-227.26059686921542
20
-154.68977395635503
10
-227.26059686921545
20
-159.68977395635505
10
-240.89696050557905
20
-159.68977395635505
10
-240.89696050557902
20
-154.68977395635505
10
-254.53332414194267
20
-154.68977395635503
10
-254.53332414194267
20
-159.68977395635505
10
-268.1696877783063
20
-159.68977395635503
10
-268.1696877783063
20
-154.68977395635503
10
-281.80605141466992
20
-154.68977395635503
10
-281.80605141466992
20
-159.68977395635505
10
-295.44241505103355
20
-159.68977395635503
10
-295.44241505103355
20
-154.68977395635505
10
-309.07877868739723
20
-154.68977395635503
10
-309.07877868739723
20
-159.68977395635505
10
-322.71514232376086
20
-159.68977395635505
10
-322.71514232376086
20
-176.68977395635508
10
-317.7151423237608
20
-176.68977395635508
10
-317.71514232376086
20
-198.68977395635511
10
-322.71514232376086
20
-198.68977395635511
10
-322.71514232376086
20
-220.68977395635517
10
-317.71514232376086
20
-220.68977395635517
0
LWPOLYLINE
5
107
100
AcDbEntity
8
0
100
AcDbPolyline
90
36
70
1
43
0.0
10
-150.22421957981686
20
-159.47989828588945
10
-163.11310846870572
20
-159.47989828588945
10
-163.11310846870572
20
-176.47989828588945
10
-168.11310846870572
20
-176.47989828588948
10
-168.11310846870572
20
-198.47989828588942
10
-163.11310846870572
20
-198.47989828588942
10
-163.11310846870572
20
-220.47989828588948
10
-168.11310846870572
20
-220.47989828588948
10
-168.11310846870572
20
-242.47989828588945
10
-163.11310846870578
20
-242.47989828588945
10
-163.11310846870578
20
-264.47989828588948
10
-12.113108468705711
20
-264.47989828588953
10
-12.113108468705722
20
-242.47989828588948
10
-7.1131084687057218
20
-242.47989828588948
10
-7.11310846870572
20
-220.47989828588953
10
-12.11310846870572
20
-220.47989828588953
10
-12.113108468705715
20
-198.47989828588948
10
-7.1131084687057164
20
-198.47989828588948
10
-7.1131084687057147
20
-176.47989828588948
10
-12.113108468705715
20
-176.47989828588948
10
-12.113108468705711
20
-159.47989828588948
10
-25.001997357594608
20
-159.4798982858895
10
-25.001997357594608
20
-154.4798982858895
10
-42.89088624648349
20
-154.47989828588948
10
-42.89088624648349
20
-159.47989828588948
10
-60.779775135372383
20
-159.47989828588948
10
-60.779775135372383
20
-154.47989828588948
10
-78.668664024261261
20
-154.47989828588945
10
-78.668664024261261
20
-159.47989828588945
10
-96.557552913150161
20
-159.47989828588945
10
-96.557552913150161
20
-154.47989828588945
10
-114.44644180203906
20
-154.47989828588945
10
-114.44644180203906
20
-159.47989828588945
10
-132.33533069092795
20
-159.47989828588945
10
-132.33533069092795
20
-154.47989828588945
10
-150.22421957981683
20
-154.47989828588945
0
LWPOLYLINE
5
108
100
AcDbEntity
8
0
100
AcDbPolyline
90
4
70
1
43
0.0
10
-54.779775135372404
20
-175.97989828588942
10
-54.77977513537239
20
-181.97989828588945
10
-60.779775135372383
20
-181.97989828588945
10
-60.779775135372383
20
-175.97989828588942
0
LWPOLYLINE
5
109
100
AcDbEntity
8
0
100
AcDbPolyline
90
4
70
1
43
0.0
10
-62.446441802039061
20
-175.97989828588942
10
-62.446441802039061
20
-181.97989828588945
10
-68.446441802039033
20
-181.97989828588945
10
-68.446441802039033
20
-175.97989828588942
0
LWPOLYLINE
5
110
100
AcDbEntity
8
0
100
AcDbPolyline
90
4
70
1
43
0.0
10
-70.113108468705732
20
-175.97989828588942
10
-70.113108468705718
20
-181.97989828588945
10
-76.113108468705718
20
-181.97989828588945
10
-76.113108468705718
20
-175.97989828588942
0
LWPOLYLINE
5
111
100
AcDbEntity
8
0
100
AcDbPolyline
90
4
70
1
43
0.0
10
-77.779775135372404
20
-175.97989828588942
10
-77.77977513537239
20
-181.97989828588945
10
-83.77977513537239
20
-181.97989828588945
10
-83.77977513537239
20
-175.97989828588942
0
LWPOLYLINE
5
112
100
AcDbEntity
8
0
100
AcDbPolyline
90
4
70
1
43
0.0
10
-85.446441802039061
20
-175.97989828588942
10
-85.446441802039047
20
-181.97989828588945
10
-91.446441802039047
20
-181.97989828588945
10
-91.446441802039047
20
-175.97989828588942
0
LWPOLYLINE
5
113
100
AcDbEntity
8
0
100
AcDbPolyline
90
4
70
1
43
0.0
10
-93.113108468705761
20
-175.97989828588942
10
-93.113108468705718
20
-181.97989828588945
10
-99.113108468705718
20
-181.97989828588945
10
-99.113108468705718
20
-175.97989828588942
0
LWPOLYLINE
5
114
100
AcDbEntity
8
0
100
AcDbPolyline
90
4
70
1
43
0.0
10
-100.77977513537242
20
-175.97989828588942
10
-100.77977513537238
20
-181.97989828588945
10
-106.7797751353724
20
-181.97989828588945
10
-106.7797751353724
20
-175.97989828588942
0
LWPOLYLINE
5
115
100
AcDbEntity
8
0
100
AcDbPolyline
90
4
70
1
43
0.0
10
-108.44644180203909
20
-175.97989828588942
10
-108.44644180203908
20
-181.97989828588945
10
-114.44644180203906
20
-181.97989828588945
10
-114.44644180203908
20
-175.97989828588942
0
LWPOLYLINE
5
116
100
AcDbEntity
8
0
100
AcDbPolyline
90
4
70
1
43
0.0
10
-54.779775135372404
20
-183.83704114303228
10
-54.779775135372397
20
-189.83704114303231
10
-60.77977513537239
20
-189.83704114303231
10
-60.779775135372383
20
-183.83704114303228
0
LWPOLYLINE
5
117
100
AcDbEntity
8
0
100
AcDbPolyline
90
4
70
1
43
0.0
10
-62.446441802039061
20
-183.83704114303228
10
-62.446441802039068
20
-189.83704114303231
10
-68.446441802039047
20
-189.83704114303231
10
-68.446441802039033
20
-183.83704114303228
0
LWPOLYLINE
5
118
100
AcDbEntity
8
0
100
AcDbPolyline
90
4
70
1
43
0.0
10
-70.113108468705732
20
-183.83704114303228
10
-70.113108468705732
20
-189.83704114303231
10
-76.113108468705718
20
-189.83704114303231
10
-76.113108468705718
20
-183.83704114303228
0
LWPOLYLINE
5
119
100
AcDbEntity
8
0
100
AcDbPolyline
90
4
70
1
43
0.0
10
-77.779775135372404
20
-183.83704114303228
10
-77.779775135372404
20
-189.83704114303231
10
-83.77977513537239
20
-189.83704114303231
10
-83.77977513537239
20
-183.83704114303228
0
LWPOLYLINE
5
120
100
AcDbEntity
8
0
100
AcDbPolyline
90
4
70
1
43
0.0
10
-85.446441802039061
20
-183.83704114303228
10
-85.446441802039061
20
-189.83704114303231
10
-91.446441802039047
20
-189.83704114303231
10
-91.446441802039047
20
-183.83704114303228
0
LWPOLYLINE
5
121
100
AcDbEntity
8
0
100
AcDbPolyline
90
4
70
1
43
0.0
10
-93.113108468705761
20
-183.83704114303228
10
-93.113108468705718
20
-189.83704114303231
10
-99.113108468705718
20
-189.83704114303231
10
-99.113108468705718
20
-183.83704114303228
0
LWPOLYLINE
5
122
100
AcDbEntity
8
0
100
AcDbPolyline
90
4
70
1
43
0.0
10
-100.77977513537242
20
-183.83704114303228
10
-100.77977513537238
20
-189.83704114303231
10
-106.7797751353724
20
-189.83704114303231
10
-106.7797751353724
20
-183.83704114303228
0
LWPOLYLINE
5
123
100
AcDbEntity
8
0
100
AcDbPolyline
90
4
70
1
43
0.0
10
-108.44644180203908
20
-183.83704114303228
10
-108.44644180203908
20
-189.83704114303231
10
-114.44644180203906
20
-189.83704114303231
10
-114.44644180203906
20
-183.83704114303228
0
LWPOLYLINE
5
124
100
AcDbEntity
8
0
100
AcDbPolyline
90
4
70
1
43
0.0
10
-54.779775135372411
20
-191.69418400017514
10
-54.779775135372397
20
-197.69418400017514
10
-60.77977513537239
20
-197.69418400017514
10
-60.77977513537239
20
-191.69418400017517
0
LWPOLYLINE
5
125
100
AcDbEntity
8
0
100
AcDbPolyline
90
4
70
1
43
0.0
10
-62.446441802039068
20
-191.69418400017514
10
-62.446441802039068
20
-197.69418400017514
10
-68.446441802039047
20
-197.69418400017514
10
-68.446441802039047
20
-191.69418400017517
0
LWPOLYLINE
5
126
100
AcDbEntity
8
0
100
AcDbPolyline
90
4
70
1
43
0.0
10
-70.113108468705747
20
-191.69418400017514
10
-70.113108468705732
20
-197.69418400017514
10
-76.113108468705718
20
-197.69418400017514
10
-76.113108468705718
20
-191.69418400017517
0
LWPOLYLINE
5
127
100
AcDbEntity
8
0
100
AcDbPolyline
90
4
70
1
43
0.0
10
-77.779775135372418
20
-191.69418400017514
10
-77.779775135372404
20
-197.69418400017514
10
-83.77977513537239
20
-197.69418400017514
10
-83.77977513537239
20
-191.69418400017517
0
LWPOLYLINE
5
128
100
AcDbEntity
8
0
100
AcDbPolyline
90
4
70
1
43
0.0
10
-85.446441802039061
20
-191.69418400017514
10
-85.446441802039061
20
-197.69418400017514
10
-91.446441802039047
20
-197.69418400017514
10
-91.446441802039047
20
-191.69418400017517
0
LWPOLYLINE
5
129
100
AcDbEntity
8
0
100
AcDbPolyline
90
4
70
1
43
0.0
10
-93.113108468705761
20
-191.69418400017514
10
-93.113108468705718
20
-197.69418400017514
10
-99.113108468705718
20
-197.69418400017514
10
-99.113108468705718
20
-191.69418400017517
0
LWPOLYLINE
5
130
100
AcDbEntity
8
0
100
AcDbPolyline
90
4
70
1
43
0.0
10
-100.77977513537242
20
-191.69418400017514
10
-100.77977513537238
20
-197.69418400017514
10
-106.7797751353724
20
-197.69418400017514
10
-106.7797751353724
20
-191.69418400017517
0
LWPOLYLINE
5
131
100
AcDbEntity
8
0
100
AcDbPolyline
90
4
70
1
43
0.0
10
-108.44644180203908
20
-191.69418400017514
10
-108.44644180203908
20
-197.69418400017514
10
-114.44644180203906
20
-197.69418400017514
10
-114.44644180203906
20
-191.69418400017517
0
LWPOLYLINE
5
132
100
AcDbEntity
8
0
100
AcDbPolyline
90
4
70
1
43
0.0
10
-54.779775135372411
20
-199.551326857318
10
-54.779775135372397
20
-205.55132685731803
10
-60.77977513537239
20
-205.55132685731803
10
-60.77977513537239
20
-199.551326857318
0
LWPOLYLINE
5
133
100
AcDbEntity
8
0
100
AcDbPolyline
90
4
70
1
43
0.0
10
-62.446441802039068
20
-199.551326857318
10
-62.446441802039068
20
-205.55132685731803
10
-68.446441802039047
20
-205.55132685731803
10
-68.446441802039047
20
-199.551326857318
0
LWPOLYLINE
5
134
100
AcDbEntity
8
0
100
AcDbPolyline
90
4
70
1
43
0.0
10
-70.113108468705747
20
-199.551326857318
10
-70.113108468705732
20
-205.55132685731803
10
-76.113108468705718
20
-205.55132685731803
10
-76.113108468705718
20
-199.551326857318
0
LWPOLYLINE
5
135
100
AcDbEntity
8
0
100
AcDbPolyline
90
4
70
1
43
0.0
10
-77.779775135372418
20
-199.551326857318
10
-77.779775135372404
20
-205.55132685731803
10
-83.77977513537239
20
-205.55132685731803
10
-83.77977513537239
20
-199.551326857318
0
LWPOLYLINE
5
136
100
AcDbEntity
8
0
100
AcDbPolyline
90
4
70
1
43
0.0
10
-85.446441802039061
20
-199.551326857318
10
-85.446441802039061
20
-205.55132685731803
10
-91.446441802039047
20
-205.55132685731803
10
-91.446441802039047
20
-199.551326857318
0
LWPOLYLINE
5
137
100
AcDbEntity
8
0
100
AcDbPolyline
90
4
70
1
43
0.0
10
-93.113108468705761
20
-199.551326857318
10
-93.113108468705718
20
-205.55132685731803
10
-99.113108468705718
20
-205.55132685731803
10
-99.113108468705718
20
-199.551326857318
0
LWPOLYLINE
5
138
100
AcDbEntity
8
0
100
AcDbPolyline
90
4
70
1
43
0.0
10
-100.77977513537242
20
-199.551326857318
10
-100.77977513537238
20
-205.55132685731803
10
-106.77977513537238
20
-205.55132685731803
10
-106.7797751353724
20
-199.551326857318
0
LWPOLYLINE
5
139
100
AcDbEntity
8
0
100
AcDbPolyline
90
4
70
1
43
0.0
10
-108.44644180203908
20
-199.551326857318
10
-108.44644180203906
20
-205.55132685731803
10
-114.44644180203906
20
-205.55132685731803
10
-114.44644180203906
20
-199.551326857318
0
LWPOLYLINE
5
140
100
AcDbEntity
8
0
100
AcDbPolyline
90
4
70
1
43
0.0
10
-54.779775135372411
20
-207.40846971446086
10
-54.779775135372411
20
-213.40846971446086
10
-60.779775135372411
20
-213.40846971446086
10
-60.77977513537239
20
-207.40846971446089
0
LWPOLYLINE
5
141
100
AcDbEntity
8
0
100
AcDbPolyline
90
4
70
1
43
0.0
10
-62.446441802039068
20
-207.40846971446086
10
-62.446441802039089
20
-213.40846971446086
10
-68.446441802039061
20
-213.40846971446086
10
-68.446441802039047
20
-207.40846971446089
0
LWPOLYLINE
5
142
100
AcDbEntity
8
0
100
AcDbPolyline
90
4
70
1
43
0.0
10
-70.113108468705747
20
-207.40846971446086
10
-70.113108468705747
20
-213.40846971446086
10
-76.113108468705747
20
-213.40846971446086
10
-76.113108468705718
20
-207.40846971446089
0
LWPOLYLINE
5
143
100
AcDbEntity
8
0
100
AcDbPolyline
90
4
70
1
43
0.0
10
-77.779775135372418
20
-207.40846971446086
10
-77.779775135372418
20
-213.40846971446086
10
-83.779775135372432
20
-213.40846971446086
10
-83.77977513537239
20
-207.40846971446089
0
LWPOLYLINE
5
144
100
AcDbEntity
8
0
100
AcDbPolyline
90
4
70
1
43
0.0
10
-85.446441802039061
20
-207.40846971446086
10
-85.446441802039061
20
-213.40846971446086
10
-91.446441802039061
20
-213.40846971446086
10
-91.446441802039047
20
-207.40846971446089
0
LWPOLYLINE
5
145
100
AcDbEntity
8
0
100
AcDbPolyline
90
4
70
1
43
0.0
10
-93.113108468705761
20
-207.40846971446086
10
-93.113108468705747
20
-213.40846971446086
10
-99.113108468705747
20
-213.40846971446086
10
-99.113108468705718
20
-207.40846971446089
0
LWPOLYLINE
5
146
100
AcDbEntity
8
0
100
AcDbPolyline
90
4
70
1
43
0.0
10
-100.77977513537242
20
-207.40846971446086
10
-100.7797751353724
20
-213.40846971446086
10
-106.77977513537238
20
-213.40846971446086
10
-106.77977513537238
20
-207.40846971446089
0
LWPOLYLINE
5
147
100
AcDbEntity
8
0
100
AcDbPolyline
90
4
70
1
43
0.0
10
-108.44644180203908
20
-207.40846971446086
10
-108.44644180203906
20
-213.40846971446086
10
-114.44644180203906
20
-213.40846971446086
10
-114.44644180203906
20
-207.40846971446089
0
LWPOLYLINE
5
148
100
AcDbEntity
8
0
100
AcDbPolyline
90
4
70
1
43
0.0
10
-54.779775135372432
20
-215.26561257160375
10
-54.779775135372411
20
-221.26561257160375
10
-60.779775135372411
20
-221.26561257160375
10
-60.779775135372411
20
-215.26561257160375
0
LWPOLYLINE
5
149
100
AcDbEntity
8
0
100
AcDbPolyline
90
4
70
1
43
0.0
10
-62.446441802039089
20
-215.26561257160375
10
-62.446441802039089
20
-221.26561257160375
10
-68.446441802039061
20
-221.26561257160375
10
-68.446441802039061
20
-215.26561257160375
0
LWPOLYLINE
5
150
100
AcDbEntity
8
0
100
AcDbPolyline
90
4
70
1
43
0.0
10
-70.113108468705761
20
-215.26561257160375
10
-70.113108468705747
20
-221.26561257160375
10
-76.113108468705747
20
-221.26561257160375
10
-76.113108468705747
20
-215.26561257160375
0
LWPOLYLINE
5
151
100
AcDbEntity
8
0
100
AcDbPolyline
90
4
70
1
43
0.0
10
-77.779775135372432
20
-215.26561257160375
10
-77.779775135372418
20
-221.26561257160375
10
-83.779775135372432
20
-221.26561257160375
10
-83.779775135372432
20
-215.26561257160375
0
LWPOLYLINE
5
152
100
AcDbEntity
8
0
100
AcDbPolyline
90
4
70
1
43
0.0
10
-85.446441802039104
20
-215.26561257160375
10
-85.446441802039061
20
-221.26561257160375
10
-91.446441802039061
20
-221.26561257160375
10
-91.446441802039061
20
-215.26561257160375
0
LWPOLYLINE
5
153
100
AcDbEntity
8
0
100
AcDbPolyline
90
4
70
1
43
0.0
10
-93.113108468705775
20
-215.26561257160375
10
-93.113108468705747
20
-221.26561257160375
10
-99.113108468705747
20
-221.26561257160375
10
-99.113108468705747
20
-215.26561257160375
0
LWPOLYLINE
5
154
100
AcDbEntity
8
0
100
AcDbPolyline
90
4
70
1
43
0.0
10
-100.77977513537243
20
-215.26561257160375
10
-100.7797751353724
20
-221.26561257160375
10
-106.77977513537238
20
-221.26561257160375
10
-106.77977513537238
20
-215.26561257160375
0
LWPOLYLINE
5
155
100
AcDbEntity
8
0
100
AcDbPolyline
90
4
70
1
43
0.0
10
-108.44644180203908
20
-215.26561257160375
10
-108.44644180203906
20
-221.26561257160375
10
-114.44644180203906
20
-221.26561257160375
10
-114.44644180203906
20
-215.26561257160375
0
LWPOLYLINE
5
156
100
AcDbEntity
8
0
100
AcDbPolyline
90
4
70
1
43
0.0
10
-54.779775135372432
20
-223.12275542874659
10
-54.779775135372404
20
-229.12275542874659
10
-60.779775135372411
20
-229.12275542874659
10
-60.779775135372411
20
-223.12275542874659
0
LWPOLYLINE
5
157
100
AcDbEntity
8
0
100
AcDbPolyline
90
4
70
1
43
0.0
10
-62.446441802039089
20
-223.12275542874659
10
-62.446441802039089
20
-229.12275542874659
10
-68.446441802039061
20
-229.12275542874659
10
-68.446441802039061
20
-223.12275542874659
0
LWPOLYLINE
5
158
100
AcDbEntity
8
0
100
AcDbPolyline
90
4
70
1
43
0.0
10
-70.113108468705761
20
-223.12275542874659
10
-70.113108468705747
20
-229.12275542874659
10
-76.113108468705747
20
-229.12275542874659
10
-76.113108468705747
20
-223.12275542874659
0
LWPOLYLINE
5
159
100
AcDbEntity
8
0
100
AcDbPolyline
90
4
70
1
43
0.0
10
-77.779775135372432
20
-223.12275542874659
10
-77.779775135372418
20
-229.12275542874659
10
-83.779775135372432
20
-229.12275542874659
10
-83.779775135372432
20
-223.12275542874659
0
LWPOLYLINE
5
160
100
AcDbEntity
8
0
100
AcDbPolyline
90
4
70
1
43
0.0
10
-85.446441802039104
20
-223.12275542874659
10
-85.446441802039061
20
-229.12275542874659
10
-91.446441802039089
20
-229.12275542874659
10
-91.446441802039089
20
-223.12275542874659
0
LWPOLYLINE
5
161
100
AcDbEntity
8
0
100
AcDbPolyline
90
4
70
1
43
0.0
10
-93.113108468705803
20
-223.12275542874659
10
-93.113108468705761
20
-229.12275542874659
10
-99.113108468705761
20
-229.12275542874659
10
-99.113108468705761
20
-223.12275542874659
0
LWPOLYLINE
5
162
100
AcDbEntity
8
0
100
AcDbPolyline
90
4
70
1
43
0.0
10
-100.77977513537246
20
-223.12275542874659
10
-100.77977513537242
20
-229.12275542874659
10
-106.7797751353724
20
-229.12275542874659
10
-106.7797751353724
20
-223.12275542874659
0
LWPOLYLINE
5
163
100
AcDbEntity
8
0
100
AcDbPolyline
90
4
70
1
43
0.0
10
-108.44644180203909
20
-223.12275542874659
10
-108.44644180203908
20
-229.12275542874659
10
-114.44644180203908
20
-229.12275542874659
10
-114.44644180203908
20
-223.12275542874659
0
LWPOLYLINE
5
164
100
AcDbEntity
8
0
100
AcDbPolyline
90
4
70
1
43
0.0
10
-54.779775135372418
20
-230.97989828588942
10
-54.779775135372404
20
-236.97989828588945
10
-60.779775135372411
20
-236.97989828588945
10
-60.779775135372411
20
-230.97989828588942
0
LWPOLYLINE
5
165
100
AcDbEntity
8
0
100
AcDbPolyline
90
4
70
1
43
0.0
10
-62.446441802039089
20
-230.97989828588942
10
-62.446441802039089
20
-236.97989828588945
10
-68.446441802039061
20
-236.97989828588945
10
-68.446441802039061
20
-230.97989828588942
0
LWPOLYLINE
5
166
100
AcDbEntity
8
0
100
AcDbPolyline
90
4
70
1
43
0.0
10
-70.113108468705761
20
-230.97989828588942
10
-70.113108468705747
20
-236.97989828588945
10
-76.113108468705732
20
-236.97989828588945
10
-76.113108468705747
20
-230.97989828588942
0
LWPOLYLINE
5
167
100
AcDbEntity
8
0
100
AcDbPolyline
90
4
70
1
43
0.0
10
-77.779775135372432
20
-230.97989828588942
10
-77.779775135372404
20
-236.97989828588945
10
-83.779775135372404
20
-236.97989828588945
10
-83.779775135372432
20
-230.97989828588942
0
LWPOLYLINE
5
168
100
AcDbEntity
8
0
100
AcDbPolyline
90
4
70
1
43
0.0
10
-85.446441802039104
20
-230.97989828588942
10
-85.446441802039061
20
-236.97989828588945
10
-91.446441802039089
20
-236.97989828588945
10
-91.446441802039089
20
-230.97989828588942
0
LWPOLYLINE
5
169
100
AcDbEntity
8
0
100
AcDbPolyline
90
4
70
1
43
0.0
10
-93.113108468705803
20
-230.97989828588942
10
-93.113108468705761
20
-236.97989828588945
10
-99.113108468705761
20
-236.97989828588945
10
-99.113108468705761
20
-230.97989828588942
0
LWPOLYLINE
5
170
100
AcDbEntity
8
0
100
AcDbPolyline
90
4
70
1
43
0.0
10
-100.77977513537246
20
-230.97989828588942
10
-100.77977513537242
20
-236.97989828588945
10
-106.7797751353724
20
-236.97989828588945
10
-106.7797751353724
20
-230.97989828588942
0
LWPOLYLINE
5
171
100
AcDbEntity
8
0
100
AcDbPolyline
90
4
70
1
43
0.0
10
-114.44644180203908
20
-236.97989828588945
10
-114.44644180203908
20
-230.97989828588942
10
-108.44644180203908
20
-230.97989828588942
10
-108.44644180203908
20
-236.97989828588945
0
LWPOLYLINE
5
172
100
AcDbEntity
8
0
100
AcDbPolyline
90
4
70
1
43
0.0
10
53.666666666666679
20
-182.49999999999969
10
47.666666666666693
20
-182.49999999999969
10
47.666666666666686
20
-176.49999999999966
10
53.666666666666671
20
-176.49999999999966
0
LWPOLYLINE
5
173
100
AcDbEntity
8
0
100
AcDbPolyline
90
4
70
1
43
0.0
10
61.333333333333336
20
-182.49999999999969
10
55.33333333333335
20
-182.49999999999969
10
55.333333333333343
20
-176.49999999999966
10
61.333333333333329
20
-176.49999999999966
0
LWPOLYLINE
5
174
100
AcDbEntity
8
0
100
AcDbPolyline
90
4
70
1
43
0.0
10
69
20
-182.49999999999969
10
63.000000000000007
20
-182.49999999999969
10
63.000000000000007
20
-176.49999999999966
10
69
20
-176.49999999999966
0
LWPOLYLINE
5
175
100
AcDbEntity
8
0
100
AcDbPolyline
90
4
70
1
43
0.0
10
76.666666666666657
20
-182.49999999999969
10
70.666666666666671
20
-182.49999999999969
10
70.666666666666671
20
-176.49999999999966
10
76.666666666666657
20
-176.49999999999966
0
LWPOLYLINE
5
176
100
AcDbEntity
8
0
100
AcDbPolyline
90
4
70
1
43
0.0
10
84.333333333333314
20
-182.49999999999969
10
78.333333333333329
20
-182.49999999999969
10
78.333333333333314
20
-176.49999999999966
10
84.333333333333314
20
-176.49999999999966
0
LWPOLYLINE
5
177
100
AcDbEntity
8
0
100
AcDbPolyline
90
4
70
1
43
0.0
10
91.999999999999972
20
-182.49999999999969
10
85.999999999999972
20
-182.49999999999969
10
86
20
-176.49999999999966
10
92
20
-176.49999999999966
0
LWPOLYLINE
5
178
100
AcDbEntity
8
0
100
AcDbPolyline
90
4
70
1
43
0.0
10
99.666666666666629
20
-182.49999999999969
10
93.666666666666629
20
-182.49999999999969
10
93.666666666666629
20
-176.49999999999966
10
99.666666666666629
20
-176.49999999999966
0
LWPOLYLINE
5
179
100
AcDbEntity
8
0
100
AcDbPolyline
90
4
70
1
43
0.0
10
107.33333333333331
20
-182.49999999999969
10
101.33333333333331
20
-182.49999999999969
10
101.33333333333331
20
-176.49999999999966
10
107.33333333333331
20
-176.49999999999966
0
LWPOLYLINE
5
180
100
AcDbEntity
8
0
100
AcDbPolyline
90
4
70
1
43
0.0
10
53.666666666666679
20
-190.35714285714252
10
47.666666666666693
20
-190.35714285714252
10
47.666666666666686
20
-184.35714285714252
10
53.666666666666671
20
-184.35714285714252
0
LWPOLYLINE
5
181
100
AcDbEntity
8
0
100
AcDbPolyline
90
4
70
1
43
0.0
10
61.333333333333336
20
-190.35714285714252
10
55.33333333333335
20
-190.35714285714252
10
55.333333333333343
20
-184.35714285714252
10
61.333333333333329
20
-184.35714285714252
0
LWPOLYLINE
5
182
100
AcDbEntity
8
0
100
AcDbPolyline
90
4
70
1
43
0.0
10
69
20
-190.35714285714252
10
63.000000000000007
20
-190.35714285714252
10
63.000000000000007
20
-184.35714285714252
10
69
20
-184.35714285714252
0
LWPOLYLINE
5
183
100
AcDbEntity
8
0
100
AcDbPolyline
90
4
70
1
43
0.0
10
76.666666666666657
20
-190.35714285714252
10
70.666666666666671
20
-190.35714285714252
10
70.666666666666671
20
-184.35714285714252
10
76.666666666666657
20
-184.35714285714252
0
LWPOLYLINE
5
184
100
AcDbEntity
8
0
100
AcDbPolyline
90
4
70
1
43
0.0
10
84.333333333333314
20
-190.35714285714252
10
78.333333333333329
20
-190.35714285714252
10
78.333333333333314
20
-184.35714285714252
10
84.333333333333314
20
-184.35714285714252
0
LWPOLYLINE
5
185
100
AcDbEntity
8
0
100
AcDbPolyline
90
4
70
1
43
0.0
10
91.999999999999972
20
-190.35714285714252
10
85.999999999999972
20
-190.35714285714252
10
86
20
-184.35714285714252
10
92
20
-184.35714285714252
0
LWPOLYLINE
5
186
100
AcDbEntity
8
0
100
AcDbPolyline
90
4
70
1
43
0.0
10
99.666666666666629
20
-190.35714285714252
10
93.666666666666629
20
-190.35714285714252
10
93.666666666666629
20
-184.35714285714252
10
99.666666666666629
20
-184.35714285714252
0
LWPOLYLINE
5
187
100
AcDbEntity
8
0
100
AcDbPolyline
90
4
70
1
43
0.0
10
107.33333333333331
20
-190.35714285714252
10
101.33333333333331
20
-190.35714285714252
10
101.33333333333331
20
-184.35714285714252
10
107.33333333333331
20
-184.35714285714252
0
LWPOLYLINE
5
188
100
AcDbEntity
8
0
100
AcDbPolyline
90
4
70
1
43
0.0
10
53.666666666666679
20
-198.21428571428538
10
47.666666666666693
20
-198.21428571428538
10
47.666666666666686
20
-192.21428571428538
10
53.666666666666671
20
-192.21428571428538
0
LWPOLYLINE
5
189
100
AcDbEntity
8
0
100
AcDbPolyline
90
4
70
1
43
0.0
10
61.333333333333336
20
-198.21428571428538
10
55.33333333333335
20
-198.21428571428538
10
55.333333333333343
20
-192.21428571428538
10
61.333333333333329
20
-192.21428571428538
0
LWPOLYLINE
5
190
100
AcDbEntity
8
0
100
AcDbPolyline
90
4
70
1
43
0.0
10
69
20
-198.21428571428538
10
63.000000000000007
20
-198.21428571428538
10
63.000000000000007
20
-192.21428571428538
10
69
20
-192.21428571428538
0
LWPOLYLINE
5
191
100
AcDbEntity
8
0
100
AcDbPolyline
90
4
70
1
43
0.0
10
76.666666666666657
20
-198.21428571428538
10
70.666666666666671
20
-198.21428571428538
10
70.666666666666671
20
-192.21428571428538
10
76.666666666666657
20
-192.21428571428538
0
LWPOLYLINE
5
192
100
AcDbEntity
8
0
100
AcDbPolyline
90
4
70
1
43
0.0
10
84.333333333333314
20
-198.21428571428538
10
78.333333333333329
20
-198.21428571428538
10
78.333333333333314
20
-192.21428571428538
10
84.333333333333314
20
-192.21428571428538
0
LWPOLYLINE
5
193
100
AcDbEntity
8
0
100
AcDbPolyline
90
4
70
1
43
0.0
10
91.999999999999972
20
-198.21428571428538
10
85.999999999999972
20
-198.21428571428538
10
86
20
-192.21428571428538
10
92
20
-192.21428571428538
0
LWPOLYLINE
5
194
100
AcDbEntity
8
0
100
AcDbPolyline
90
4
70
1
43
0.0
10
99.666666666666629
20
-198.21428571428538
10
93.666666666666629
20
-198.21428571428538
10
93.666666666666629
20
-192.21428571428538
10
99.666666666666629
20
-192.21428571428538
0
LWPOLYLINE
5
195
100
AcDbEntity
8
0
100
AcDbPolyline
90
4
70
1
43
0.0
10
107.33333333333331
20
-198.21428571428538
10
101.33333333333331
20
-198.21428571428538
10
101.33333333333331
20
-192.21428571428538
10
107.33333333333331
20
-192.21428571428538
0
LWPOLYLINE
5
196
100
AcDbEntity
8
0
100
AcDbPolyline
90
4
70
1
43
0.0
10
53.666666666666679
20
-206.07142857142821
10
47.666666666666693
20
-206.07142857142821
10
47.666666666666686
20
-200.07142857142821
10
53.666666666666671
20
-200.07142857142821
0
LWPOLYLINE
5
197
100
AcDbEntity
8
0
100
AcDbPolyline
90
4
70
1
43
0.0
10
61.333333333333336
20
-206.07142857142821
10
55.33333333333335
20
-206.07142857142821
10
55.333333333333343
20
-200.07142857142821
10
61.333333333333329
20
-200.07142857142821
0
LWPOLYLINE
5
198
100
AcDbEntity
8
0
100
AcDbPolyline
90
4
70
1
43
0.0
10
69
20
-206.07142857142821
10
63.000000000000007
20
-206.07142857142821
10
63.000000000000007
20
-200.07142857142821
10
69
20
-200.07142857142821
0
LWPOLYLINE
5
199
100
AcDbEntity
8
0
100
AcDbPolyline
90
4
70
1
43
0.0
10
76.666666666666657
20
-206.07142857142821
10
70.666666666666671
20
-206.07142857142821
10
70.666666666666671
20
-200.07142857142821
10
76.666666666666657
20
-200.07142857142821
0
LWPOLYLINE
5
200
100
AcDbEntity
8
0
100
AcDbPolyline
90
4
70
1
43
0.0
10
84.333333333333314
20
-206.07142857142821
10
78.333333333333329
20
-206.07142857142821
10
78.333333333333314
20
-200.07142857142821
10
84.333333333333314
20
-200.07142857142821
0
LWPOLYLINE
5
201
100
AcDbEntity
8
0
100
AcDbPolyline
90
4
70
1
43
0.0
10
91.999999999999972
20
-206.07142857142821
10
85.999999999999972
20
-206.07142857142821
10
86
20
-200.07142857142821
10
92
20
-200.07142857142821
0
LWPOLYLINE
5
202
100
AcDbEntity
8
0
100
AcDbPolyline
90
4
70
1
43
0.0
10
99.666666666666629
20
-206.07142857142821
10
93.666666666666629
20
-206.07142857142821
10
93.666666666666629
20
-200.07142857142821
10
99.666666666666629
20
-200.07142857142821
0
LWPOLYLINE
5
203
100
AcDbEntity
8
0
100
AcDbPolyline
90
4
70
1
43
0.0
10
107.33333333333331
20
-206.07142857142821
10
101.33333333333331
20
-206.07142857142821
10
101.33333333333331
20
-200.07142857142821
10
107.33333333333331
20
-200.07142857142821
0
LWPOLYLINE
5
204
100
AcDbEntity
8
0
100
AcDbPolyline
90
4
70
1
43
0.0
10
53.666666666666679
20
-213.92857142857108
10
47.666666666666693
20
-213.92857142857108
10
47.666666666666686
20
-207.9285714285711
10
53.666666666666671
20
-207.9285714285711
0
LWPOLYLINE
5
205
100
AcDbEntity
8
0
100
AcDbPolyline
90
4
70
1
43
0.0
10
61.333333333333336
20
-213.92857142857108
10
55.33333333333335
20
-213.92857142857108
10
55.333333333333343
20
-207.9285714285711
10
61.333333333333329
20
-207.9285714285711
0
LWPOLYLINE
5
206
100
AcDbEntity
8
0
100
AcDbPolyline
90
4
70
1
43
0.0
10
69
20
-213.92857142857108
10
63.000000000000007
20
-213.92857142857108
10
63.000000000000007
20
-207.9285714285711
10
69
20
-207.9285714285711
0
LWPOLYLINE
5
207
100
AcDbEntity
8
0
100
AcDbPolyline
90
4
70
1
43
0.0
10
76.666666666666657
20
-213.92857142857108
10
70.666666666666671
20
-213.92857142857108
10
70.666666666666671
20
-207.9285714285711
10
76.666666666666657
20
-207.9285714285711
0
LWPOLYLINE
5
208
100
AcDbEntity
8
0
100
AcDbPolyline
90
4
70
1
43
0.0
10
84.333333333333314
20
-213.92857142857108
10
78.333333333333329
20
-213.92857142857108
10
78.333333333333314
20
-207.9285714285711
10
84.333333333333314
20
-207.9285714285711
0
LWPOLYLINE
5
209
100
AcDbEntity
8
0
100
AcDbPolyline
90
4
70
1
43
0.0
10
91.999999999999972
20
-213.92857142857108
10
85.999999999999972
20
-213.92857142857108
10
86
20
-207.9285714285711
10
92
20
-207.9285714285711
0
LWPOLYLINE
5
210
100
AcDbEntity
8
0
100
AcDbPolyline
90
4
70
1
43
0.0
10
99.666666666666629
20
-213.92857142857108
10
93.666666666666629
20
-213.92857142857108
10
93.666666666666629
20
-207.9285714285711
10
99.666666666666629
20
-207.9285714285711
0
LWPOLYLINE
5
211
100
AcDbEntity
8
0
100
AcDbPolyline
90
4
70
1
43
0.0
10
107.33333333333331
20
-213.92857142857108
10
101.33333333333331
20
-213.92857142857108
10
101.33333333333331
20
-207.9285714285711
10
107.33333333333331
20
-207.9285714285711
0
LWPOLYLINE
5
212
100
AcDbEntity
8
0
100
AcDbPolyline
90
4
70
1
43
0.0
10
53.666666666666679
20
-221.78571428571394
10
47.666666666666693
20
-221.78571428571394
10
47.666666666666686
20
-215.78571428571394
10
53.666666666666671
20
-215.78571428571394
0
LWPOLYLINE
5
213
100
AcDbEntity
8
0
100
AcDbPolyline
90
4
70
1
43
0.0
10
61.333333333333336
20
-221.78571428571394
10
55.33333333333335
20
-221.78571428571394
10
55.333333333333343
20
-215.78571428571394
10
61.333333333333329
20
-215.78571428571394
0
LWPOLYLINE
5
214
100
AcDbEntity
8
0
100
AcDbPolyline
90
4
70
1
43
0.0
10
69
20
-221.78571428571394
10
63.000000000000007
20
-221.78571428571394
10
63.000000000000007
20
-215.78571428571394
10
69
20
-215.78571428571394
0
LWPOLYLINE
5
215
100
AcDbEntity
8
0
100
AcDbPolyline
90
4
70
1
43
0.0
10
76.666666666666657
20
-221.78571428571394
10
70.666666666666671
20
-221.78571428571394
10
70.666666666666671
20
-215.78571428571394
10
76.666666666666657
20
-215.78571428571394
0
LWPOLYLINE
5
216
100
AcDbEntity
8
0
100
AcDbPolyline
90
4
70
1
43
0.0
10
84.333333333333314
20
-221.78571428571394
10
78.333333333333329
20
-221.78571428571394
10
78.333333333333314
20
-215.78571428571394
10
84.333333333333314
20
-215.78571428571394
0
LWPOLYLINE
5
217
100
AcDbEntity
8
0
100
AcDbPolyline
90
4
70
1
43
0.0
10
91.999999999999972
20
-221.78571428571394
10
85.999999999999972
20
-221.78571428571394
10
86
20
-215.78571428571394
10
92
20
-215.78571428571394
0
LWPOLYLINE
5
218
100
AcDbEntity
8
0
100
AcDbPolyline
90
4
70
1
43
0.0
10
99.666666666666629
20
-221.78571428571394
10
93.666666666666629
20
-221.78571428571394
10
93.666666666666629
20
-215.78571428571394
10
99.666666666666629
20
-215.78571428571394
0
LWPOLYLINE
5
219
100
AcDbEntity
8
0
100
AcDbPolyline
90
4
70
1
43
0.0
10
107.33333333333331
20
-221.78571428571394
10
101.33333333333331
20
-221.78571428571394
10
101.33333333333331
20
-215.78571428571394
10
107.33333333333331
20
-215.78571428571394
0
LWPOLYLINE
5
220
100
AcDbEntity
8
0
100
AcDbPolyline
90
4
70
1
43
0.0
10
53.666666666666679
20
-229.6428571428568
10
47.666666666666693
20
-229.6428571428568
10
47.666666666666686
20
-223.64285714285677
10
53.666666666666671
20
-223.64285714285677
0
LWPOLYLINE
5
221
100
AcDbEntity
8
0
100
AcDbPolyline
90
4
70
1
43
0.0
10
61.333333333333336
20
-229.6428571428568
10
55.33333333333335
20
-229.6428571428568
10
55.333333333333343
20
-223.64285714285677
10
61.333333333333329
20
-223.64285714285677
0
LWPOLYLINE
5
222
100
AcDbEntity
8
0
100
AcDbPolyline
90
4
70
1
43
0.0
10
69
20
-229.6428571428568
10
63.000000000000007
20
-229.6428571428568
10
63.000000000000007
20
-223.64285714285677
10
69
20
-223.64285714285677
0
LWPOLYLINE
5
223
100
AcDbEntity
8
0
100
AcDbPolyline
90
4
70
1
43
0.0
10
76.666666666666657
20
-229.6428571428568
10
70.666666666666671
20
-229.6428571428568
10
70.666666666666671
20
-223.64285714285677
10
76.666666666666657
20
-223.64285714285677
0
LWPOLYLINE
5
224
100
AcDbEntity
8
0
100
AcDbPolyline
90
4
70
1
43
0.0
10
84.333333333333314
20
-229.6428571428568
10
78.333333333333329
20
-229.6428571428568
10
78.333333333333314
20
-223.64285714285677
10
84.333333333333314
20
-223.64285714285677
0
LWPOLYLINE
5
225
100
AcDbEntity
8
0
100
AcDbPolyline
90
4
70
1
43
0.0
10
91.999999999999972
20
-229.6428571428568
10
85.999999999999972
20
-229.6428571428568
10
86
20
-223.64285714285677
10
92
20
-223.64285714285677
0
LWPOLYLINE
5
226
100
AcDbEntity
8
0
100
AcDbPolyline
90
4
70
1
43
0.0
10
99.666666666666629
20
-229.6428571428568
10
93.666666666666629
20
-229.6428571428568
10
93.666666666666629
20
-223.64285714285677
10
99.666666666666629
20
-223.64285714285677
0
LWPOLYLINE
5
227
100
AcDbEntity
8
0
100
AcDbPolyline
90
4
70
1
43
0.0
10
107.33333333333331
20
-229.6428571428568
10
101.33333333333331
20
-229.6428571428568
10
101.33333333333331
20
-223.64285714285677
10
107.33333333333331
20
-223.64285714285677
0
LWPOLYLINE
5
228
100
AcDbEntity
8
0
100
AcDbPolyline
90
4
70
1
43
0.0
10
53.666666666666679
20
-237.49999999999966
10
47.666666666666693
20
-237.49999999999966
10
47.666666666666686
20
-231.49999999999963
10
53.666666666666671
20
-231.49999999999963
0
LWPOLYLINE
5
229
100
AcDbEntity
8
0
100
AcDbPolyline
90
4
70
1
43
0.0
10
61.333333333333336
20
-237.49999999999966
10
55.33333333333335
20
-237.49999999999966
10
55.333333333333343
20
-231.49999999999963
10
61.333333333333329
20
-231.49999999999963
0
LWPOLYLINE
5
230
100
AcDbEntity
8
0
100
AcDbPolyline
90
4
70
1
43
0.0
10
69
20
-237.49999999999966
10
63.000000000000007
20
-237.49999999999966
10
63.000000000000007
20
-231.49999999999963
10
69
20
-231.49999999999963
0
LWPOLYLINE
5
231
100
AcDbEntity
8
0
100
AcDbPolyline
90
4
70
1
43
0.0
10
76.666666666666657
20
-237.49999999999966
10
70.666666666666671
20
-237.49999999999966
10
70.666666666666671
20
-231.49999999999963
10
76.666666666666657
20
-231.49999999999963
0
LWPOLYLINE
5
232
100
AcDbEntity
8
0
100
AcDbPolyline
90
4
70
1
43
0.0
10
84.333333333333314
20
-237.49999999999966
10
78.333333333333329
20
-237.49999999999966
10
78.333333333333314
20
-231.49999999999963
10
84.333333333333314
20
-231.49999999999963
0
LWPOLYLINE
5
233
100
AcDbEntity
8
0
100
AcDbPolyline
90
4
70
1
43
0.0
10
91.999999999999972
20
-237.49999999999966
10
85.999999999999972
20
-237.49999999999966
10
86
20
-231.49999999999963
10
92
20
-231.49999999999963
0
LWPOLYLINE
5
234
100
AcDbEntity
8
0
100
AcDbPolyline
90
4
70
1
43
0.0
10
99.666666666666629
20
-237.49999999999966
10
93.666666666666629
20
-237.49999999999966
10
93.666666666666629
20
-231.49999999999963
10
99.666666666666629
20
-231.49999999999963
0
LWPOLYLINE
5
235
100
AcDbEntity
8
0
100
AcDbPolyline
90
4
70
1
43
0.0
10
101.33333333333331
20
-231.49999999999963
10
107.33333333333331
20
-231.49999999999963
10
107.33333333333331
20
-237.49999999999966
10
101.33333333333331
20
-237.49999999999966
0
LWPOLYLINE
5
236
100
AcDbEntity
8
0
100
AcDbPolyline
90
36
70
1
43
0.0
10
155.99999999999991
20
-176.99999999999966
10
155.99999999999991
20
-159.99999999999969
10
143.11111111111106
20
-159.99999999999969
10
143.11111111111106
20
-154.99999999999969
10
125.22222222222219
20
-154.99999999999969
10
125.22222222222219
20
-159.99999999999969
10
107.33333333333331
20
-159.99999999999969
10
107.33333333333331
20
-154.99999999999969
10
89.444444444444429
20
-154.99999999999969
10
89.444444444444429
20
-159.99999999999969
10
71.555555555555543
20
-159.99999999999969
10
71.555555555555543
20
-154.99999999999969
10
53.666666666666679
20
-154.99999999999969
10
53.666666666666679
20
-159.99999999999969
10
35.7777777777778
20
-159.99999999999969
10
35.7777777777778
20
-154.99999999999969
10
17.888888888888928
20
-154.99999999999969
10
17.888888888888928
20
-159.99999999999969
10
5.0000000000000488
20
-159.99999999999969
10
5.0000000000000497
20
-176.99999999999966
10
5.3290705182007514e-14
20
-176.99999999999966
10
5.3290705182007514e-14
20
-198.99999999999966
10
5.0000000000000488
20
-198.99999999999966
10
5.0000000000000497
20
-220.99999999999966
10
5.3290705182007514e-14
20
-220.99999999999966
10
5.3290705182007514e-14
20
-242.99999999999966
10
5.0000000000000488
20
-242.99999999999966
10
5.0000000000000488
20
-264.99999999999966
10
155.99999999999991
20
-264.99999999999966
10
155.99999999999991
20
-242.99999999999966
10
160.99999999999991
20
-242.99999999999966
10
160.99999999999994
20
-220.99999999999966
10
155.99999999999994
20
-220.99999999999966
10
155.99999999999991
20
-198.99999999999966
10
160.99999999999991
20
-198.99999999999966
10
160.99999999999994
20
-176.99999999999966
0
LWPOLYLINE
5
237
100
AcDbEntity
8
0
100
AcDbPolyline
90
4
70
1
43
0.0
10
264.34802597154362
20
-187.64873431589922
10
264.34802597154362
20
-172.64873431589919
10
270.34802597154362
20
-172.64873431589919
10
270.34802597154356
20
-187.64873431589928
0
LWPOLYLINE
5
238
100
AcDbEntity
8
0
100
AcDbPolyline
90
4
70
1
43
0.0
10
256.01469263821031
20
-187.64873431589922
10
256.01469263821036
20
-172.64873431589919
10
262.01469263821031
20
-172.64873431589919
10
262.01469263821025
20
-187.64873431589922
0
LWPOLYLINE
5
239
100
AcDbEntity
8
0
100
AcDbPolyline
90
4
70
1
43
0.0
10
247.68135930487693
20
-187.64873431589922
10
247.68135930487699
20
-172.64873431589919
10
253.68135930487693
20
-172.64873431589919
10
253.68135930487688
20
-187.64873431589922
0
LWPOLYLINE
5
240
100
AcDbEntity
8
0
100
AcDbPolyline
90
4
70
1
43
0.0
10
239.34802597154362
20
-187.64873431589922
10
239.34802597154368
20
-172.64873431589919
10
245.34802597154362
20
-172.64873431589919
10
245.34802597154354
20
-187.64873431589922
0
LWPOLYLINE
5
241
100
AcDbEntity
8
0
100
AcDbPolyline
90
4
70
1
43
0.0
10
231.01469263821031
20
-187.64873431589922
10
231.01469263821033
20
-172.64873431589919
10
237.01469263821031
20
-172.64873431589919
10
237.01469263821025
20
-187.64873431589922
0
LWPOLYLINE
5
242
100
AcDbEntity
8
0
100
AcDbPolyline
90
4
70
1
43
0.0
10
222.68135930487693
20
-187.64873431589922
10
222.68135930487699
20
-172.64873431589919
10
228.68135930487696
20
-172.64873431589919
10
228.68135930487688
20
-187.64873431589922
0
LWPOLYLINE
5
243
100
AcDbEntity
8
0
100
AcDbPolyline
90
4
70
1
43
0.0
10
214.34802597154362
20
-187.64873431589922
10
214.34802597154368
20
-172.64873431589919
10
220.34802597154365
20
-172.64873431589919
10
220.34802597154356
20
-187.64873431589922
0
LWPOLYLINE
5
244
100
AcDbEntity
8
0
100
AcDbPolyline
90
4
70
1
43
0.0
10
206.01469263821031
20
-187.64873431589922
10
206.01469263821033
20
-172.64873431589919
10
212.01469263821028
20
-172.64873431589919
10
212.01469263821025
20
-187.64873431589922
0
LWPOLYLINE
5
245
100
AcDbEntity
8
0
100
AcDbPolyline
90
4
70
1
43
0.0
10
197.68135930487699
20
-187.64873431589922
10
197.68135930487699
20
-172.64873431589919
10
203.68135930487696
20
-172.64873431589919
10
203.68135930487693
20
-187.64873431589922
0
LWPOLYLINE
5
246
100
AcDbEntity
8
0
100
AcDbPolyline
90
4
70
1
43
0.0
10
189.34802597154368
20
-187.64873431589922
10
189.34802597154368
20
-172.64873431589919
10
195.34802597154365
20
-172.64873431589919
10
195.34802597154362
20
-187.64873431589922
0
LWPOLYLINE
5
247
100
AcDbEntity
8
0
100
AcDbPolyline
90
40
70
1
43
0.0
10
309.34802597154356
20
-176.3154009825659
10
314.34802597154356
20
-176.3154009825659
10
314.34802597154362
20
-159.31540098256585
10
300.71166233517994
20
-159.31540098256585
10
300.71166233517999
20
-154.31540098256585
10
287.07529869881637
20
-154.31540098256585
10
287.07529869881637
20
-159.31540098256585
10
273.43893506245274
20
-159.31540098256585
10
273.43893506245274
20
-154.31540098256582
10
259.80257142608912
20
-154.31540098256582
10
259.80257142608912
20
-159.31540098256585
10
246.16620778972549
20
-159.31540098256585
10
246.16620778972546
20
-154.31540098256582
10
232.52984415336184
20
-154.31540098256582
10
232.52984415336186
20
-159.31540098256585
10
218.89348051699818
20
-159.31540098256585
10
218.89348051699818
20
-154.31540098256579
10
205.25711688063456
20
-154.31540098256579
10
205.25711688063461
20
-159.31540098256582
10
191.62075324427093
20
-159.31540098256582
10
191.62075324427093
20
-154.31540098256579
10
177.9843896079073
20
-154.31540098256579
10
177.98438960790733
20
-159.31540098256582
10
164.34802597154371
20
-159.31540098256582
10
164.34802597154371
20
-176.31540098256585
10
169.34802597154368
20
-176.31540098256585
10
169.34802597154362
20
-198.31540098256593
10
164.34802597154368
20
-198.31540098256593
10
164.34802597154362
20
-220.31540098256602
10
169.34802597154362
20
-220.31540098256599
10
169.34802597154359
20
-242.31540098256605
10
164.34802597154359
20
-242.31540098256608
10
164.34802597154359
20
-264.31540098256613
10
314.34802597154351
20
-264.31540098256613
10
314.34802597154356
20
-242.31540098256613
10
309.34802597154351
20
-242.31540098256608
10
309.34802597154351
20
-220.31540098256602
10
314.34802597154351
20
-220.31540098256608
10
314.34802597154362
20
-198.31540098256599
10
309.34802597154362
20
-198.31540098256596
0
LWPOLYLINE
5
248
100
AcDbEntity
8
0
100
AcDbPolyline
90
76
70
1
43
0.0
10
338.38117874427496
20
-119.03741345071606
10
338.38117874427496
20
-114.03741345071607
10
320.49228985538605
20
-114.03741345071607
10
320.49228985538605
20
-127.67377708707967
10
325.49228985538605
20
-127.67377708707967
10
325.49228985538605
20
-141.31014072344325
10
320.49228985538605
20
-141.31014072344325
10
320.49228985538605
20
-154.94650435980685
10
325.49228985538605
20
-154.94650435980685
10
325.49228985538605
20
-168.58286799617048
10
320.49228985538605
20
-168.58286799617048
10
320.49228985538605
20
-182.2192316325341
10
325.49228985538605
20
-182.21923163253408
10
325.49228985538605
20
-195.85559526889767
10
320.49228985538605
20
-195.85559526889767
10
320.49228985538605
20
-209.49195890526127
10
325.49228985538605
20
-209.4919589052613
10
325.49228985538605
20
-223.1283225416249
10
320.49228985538605
20
-223.1283225416249
10
320.49228985538605
20
-236.76468617798849
10
325.49228985538605
20
-236.76468617798849
10
325.49228985538605
20
-250.40104981435209
10
320.49228985538605
20
-250.40104981435209
10
320.49228985538605
20
-264.03741345071569
10
338.38117874427496
20
-264.03741345071569
10
338.38117874427496
20
-259.03741345071569
10
356.27006763316382
20
-259.03741345071575
10
356.27006763316382
20
-264.03741345071575
10
374.15895652205273
20
-264.03741345071569
10
374.15895652205273
20
-259.03741345071569
10
392.04784541094159
20
-259.03741345071575
10
392.04784541094159
20
-264.03741345071575
10
409.9367342998305
20
-264.03741345071569
10
409.9367342998305
20
-259.03741345071569
10
427.82562318871942
20
-259.03741345071575
10
427.82562318871942
20
-264.03741345071575
10
445.71451207760833
20
-264.03741345071569
10
445.71451207760833
20
-259.03741345071569
10
463.60340096649713
20
-259.03741345071575
10
463.60340096649713
20
-264.03741345071575
10
481.49228985538605
20
-264.03741345071569
10
481.49228985538605
20
-250.40104981435209
10
476.49228985538605
20
-250.40104981435209
10
476.49228985538605
20
-236.76468617798849
10
481.49228985538605
20
-236.76468617798849
10
481.49228985538605
20
-223.1283225416249
10
476.49228985538605
20
-223.1283225416249
10
476.49228985538605
20
-209.4919589052613
10
481.49228985538605
20
-209.4919589052613
10
481.49228985538605
20
-195.8555952688977
10
476.49228985538605
20
-195.85559526889767
10
476.49228985538605
20
-182.21923163253408
10
481.49228985538605
20
-182.21923163253408
10
481.49228985538605
20
-168.58286799617045
10
476.49228985538605
20
-168.58286799617048
10
476.49228985538605
20
-154.94650435980688
10
481.49228985538605
20
-154.94650435980685
10
481.49228985538605
20
-141.31014072344325
10
476.49228985538605
20
-141.31014072344325
10
476.49228985538605
20
-127.67377708707967
10
481.49228985538605
20
-127.67377708707967
10
481.49228985538605
20
-114.03741345071607
10
463.60340096649713
20
-114.03741345071607
10
463.60340096649713
20
-119.03741345071606
10
445.71451207760833
20
-119.03741345071606
10
445.71451207760833
20
-114.03741345071607
10
427.82562318871942
20
-114.03741345071607
10
427.82562318871942
20
-119.03741345071606
10
409.9367342998305
20
-119.03741345071606
10
409.9367342998305
20
-114.03741345071607
10
392.04784541094159
20
-114.03741345071607
10
392.04784541094159
20
-119.03741345071606
10
374.15895652205273
20
-119.03741345071606
10
374.15895652205273
20
-114.03741345071607
10
356.27006763316382
20
-114.03741345071607
10
356.27006763316382
20
-119.03741345071606
0
LWPOLYLINE
5
249
100
AcDbEntity
8
0
100
AcDbPolyline
90
2
70
1
43
0.0
10
-317.01628934262527
20
-146.58163526381739
10
-262.01628934262527
20
-146.58163526381739
42
0.38792479499078142
0
LWPOLYLINE
5
250
100
AcDbEntity
8
0
100
AcDbPolyline
90
2
70
1
43
0.0
10
-251.01628934262524
20
-146.58163526381739
10
-196.01628934262524
20
-146.58163526381739
42
0.38792479499078142
0
LWPOLYLINE
5
251
100
AcDbEntity
8
0
100
AcDbPolyline
90
2
70
1
43
0.0
10
-185.01628934262524
20
-146.58163526381739
10
-130.01628934262524
20
-146.58163526381739
42
0.38792479499078142
0
LWPOLYLINE
5
252
100
AcDbEntity
8
0
100
AcDbPolyline
90
2
70
1
43
0.0
10
-119.01628934262521
20
-146.58163526381739
10
-64.016289342625214
20
-146.58163526381739
42
0.38792479499078142
0
LWPOLYLINE
5
253
100
AcDbEntity
8
0
100
AcDbPolyline
90
2
70
1
43
0.0
10
-53.016289342625207
20
-146.58163526381739
10
1.9837106573747931
20
-146.58163526381739
42
0.38792479499078142
0
LWPOLYLINE
5
254
100
AcDbEntity
8
0
100
AcDbPolyline
90
2
70
1
43
0.0
10
12.983710657374807
20
-146.58163526381739
10
67.983710657374814
20
-146.58163526381739
42
0.38792479499078142
0
LWPOLYLINE
5
255
100
AcDbEntity
8
0
100
AcDbPolyline
90
4
70
1
43
0.0
10
-453.77759917302228
20
-187.20115933679384
10
-343.77759917302228
20
-187.20115933679384
10
-343.77759917302228
20
-217.20115933679384
10
-453.77759917302228
20
-217.20115933679384
0
LWPOLYLINE
5
256
100
AcDbEntity
8
0
100
AcDbPolyline
90
4
70
1
43
0.0
10
-463.99826395574939
20
-178.5266417413979
10
-333.99826395574939
20
-178.5266417413979
10
-333.99826395574939
20
-263.5266417413979
10
-463.99826395574939
20
-263.5266417413979
0
LWPOLYLINE
5
257
100
AcDbEntity
8
0
100
AcDbPolyline
90
4
70
1
43
0.0
10
195
20
-195
10
220
20
-195
10
220
20
-205
10
195
20
-205
0
LWPOLYLINE
5
258
100
AcDbEntity
8
0
100
AcDbPolyline
90
4
70
1
43
0.0
10
235
20
-195
10
260
20
-195
10
260
20
-205
10
235
20
-205
0
LWPOLYLINE
5
259
100
AcDbEntity
8
0
100
AcDbPolyline
90
6
70
1
43
0.0
10
198.00000295042992
20
-196.00000292062759
10
217.00000323355198
20
-196.00000292062759
10
217.00000323355198
20
-201.0000029951334
10
212.00000315904617
20
-202.00000301003456
10
203.00000302493572
20
-202.00000301003456
10
198.00000295042992
20
-201.0000029951334
0
LWPOLYLINE
5
260
100
AcDbEntity
8
0
100
AcDbPolyline
90
6
70
1
43
0.0
10
238.00000354647636
20
-196.00000292062759
10
238.00000354647636
20
-202.00000301003456
10
240.00000357627869
20
-204.00000303983688
10
255.0000037997961
20
-204.00000303983694
10
257.00000382959843
20
-202.00000301003456
10
257.00000382959848
20
-196.00000292062759
0
LWPOLYLINE
5
261
100
AcDbEntity
8
0
100
AcDbPolyline
90
4
70
1
43
0.0
10
-459.04966244628355
20
-136.1365717272798
10
-338.29966244628349
20
-136.1365717272798
10
-338.29966244628349
20
-172.80323839394646
10
-459.04966244628355
20
-172.80323839394646
0
LINE
5
262
100
AcDbEntity
8
0
100
AcDbLine
10
-445.24874788543843
20
-136.1365717272798
30
0
11
-442.24874788543843
21
-136.1365717272798
31
0
0
LINE
5
263
100
AcDbEntity
8
0
100
AcDbLine
10
-442.24874788543843
20
-172.80323839394646
30
0
11
-445.24874788543843
21
-172.80323839394646
31
0
0
LINE
5
264
100
AcDbEntity
8
0
100
AcDbLine
10
-445.24874788543843
20
-172.80323839394646
30
0
11
-445.24874788543843
21
-163.6365717272798
31
0
0
LINE
5
265
100
AcDbEntity
8
0
100
AcDbLine
10
-445.24874788543843
20
-136.1365717272798
30
0
11
-445.24874788543843
21
-145.30323839394646
31
0
0
LINE
5
266
100
AcDbEntity
8
0
100
AcDbLine
10
-442.24874788543843
20
-142.01028966818194
30
0
11
-442.24874788543843
21
-151.1769563348486
31
0
0
LINE
5
267
100
AcDbEntity
8
0
100
AcDbLine
10
-442.24874788543843
20
-165.47232812120686
30
0
11
-442.24874788543843
21
-156.3056614545402
31
0
0
LINE
5
268
100
AcDbEntity
8
0
100
AcDbLine
10
-445.24874788543843
20
-154.46990506061314
30
0
11
-445.24874788543843
21
-149.8865717272798
31
0
0
LINE
5
269
100
AcDbEntity
8
0
100
AcDbLine
10
-445.24874788543843
20
-154.46990506061314
30
0
11
-445.24874788543843
21
-159.05323839394646
31
0
0
LINE
5
270
100
AcDbEntity
8
0
100
AcDbLine
10
-439.03888121877173
20
-172.80323839394646
30
0
11
-439.03888121877173
21
-163.6365717272798
31
0
0
LINE
5
271
100
AcDbEntity
8
0
100
AcDbLine
10
-436.03888121877173
20
-165.47232812120686
30
0
11
-436.03888121877173
21
-156.3056614545402
31
0
0
LINE
5
272
100
AcDbEntity
8
0
100
AcDbLine
10
-439.03888121877173
20
-154.46990506061314
30
0
11
-439.03888121877173
21
-159.05323839394646
31
0
0
LINE
5
273
100
AcDbEntity
8
0
100
AcDbLine
10
-439.03888121877173
20
-154.46990506061314
30
0
11
-439.03888121877173
21
-149.8865717272798
31
0
0
LINE
5
274
100
AcDbEntity
8
0
100
AcDbLine
10
-436.03888121877173
20
-142.01028966818194
30
0
11
-436.03888121877173
21
-151.1769563348486
31
0
0
LINE
5
275
100
AcDbEntity
8
0
100
AcDbLine
10
-439.03888121877173
20
-136.1365717272798
30
0
11
-439.03888121877173
21
-145.30323839394646
31
0
0
LINE
5
276
100
AcDbEntity
8
0
100
AcDbLine
10
-432.82901455210504
20
-172.80323839394646
30
0
11
-432.82901455210504
21
-163.6365717272798
31
0
0
LINE
5
277
100
AcDbEntity
8
0
100
AcDbLine
10
-429.82901455210509
20
-165.47232812120686
30
0
11
-429.82901455210509
21
-156.3056614545402
31
0
0
LINE
5
278
100
AcDbEntity
8
0
100
AcDbLine
10
-432.82901455210504
20
-154.46990506061314
30
0
11
-432.82901455210504
21
-159.05323839394646
31
0
0
LINE
5
279
100
AcDbEntity
8
0
100
AcDbLine
10
-432.82901455210504
20
-154.46990506061314
30
0
11
-432.82901455210504
21
-149.8865717272798
31
0
0
LINE
5
280
100
AcDbEntity
8
0
100
AcDbLine
10
-429.82901455210509
20
-142.01028966818194
30
0
11
-429.82901455210509
21
-151.1769563348486
31
0
0
LINE
5
281
100
AcDbEntity
8
0
100
AcDbLine
10
-432.82901455210504
20
-136.1365717272798
30
0
11
-432.82901455210504
21
-145.30323839394646
31
0
0
LINE
5
282
100
AcDbEntity
8
0
100
AcDbLine
10
-426.61914788543839
20
-172.80323839394646
30
0
11
-426.61914788543839
21
-163.6365717272798
31
0
0
LINE
5
283
100
AcDbEntity
8
0
100
AcDbLine
10
-423.61914788543845
20
-165.47232812120686
30
0
11
-423.61914788543845
21
-156.3056614545402
31
0
0
LINE
5
284
100
AcDbEntity
8
0
100
AcDbLine
10
-426.61914788543839
20
-154.46990506061314
30
0
11
-426.61914788543839
21
-159.05323839394646
31
0
0
LINE
5
285
100
AcDbEntity
8
0
100
AcDbLine
10
-426.61914788543839
20
-154.46990506061314
30
0
11
-426.61914788543839
21
-149.8865717272798
31
0
0
LINE
5
286
100
AcDbEntity
8
0
100
AcDbLine
10
-423.61914788543845
20
-142.01028966818194
30
0
11
-423.61914788543845
21
-151.1769563348486
31
0
0
LINE
5
287
100
AcDbEntity
8
0
100
AcDbLine
10
-426.61914788543839
20
-136.1365717272798
30
0
11
-426.61914788543839
21
-145.30323839394646
31
0
0
LINE
5
288
100
AcDbEntity
8
0
100
AcDbLine
10
-420.40928121877175
20
-172.80323839394646
30
0
11
-420.40928121877175
21
-163.6365717272798
31
0
0
LINE
5
289
100
AcDbEntity
8
0
100
AcDbLine
10
-417.40928121877175
20
-165.47232812120686
30
0
11
-417.40928121877175
21
-156.3056614545402
31
0
0
LINE
5
290
100
AcDbEntity
8
0
100
AcDbLine
10
-420.40928121877175
20
-154.46990506061314
30
0
11
-420.40928121877175
21
-159.05323839394646
31
0
0
LINE
5
291
100
AcDbEntity
8
0
100
AcDbLine
10
-420.40928121877175
20
-154.46990506061314
30
0
11
-420.40928121877175
21
-149.8865717272798
31
0
0
LINE
5
292
100
AcDbEntity
8
0
100
AcDbLine
10
-417.40928121877175
20
-142.01028966818194
30
0
11
-417.40928121877175
21
-151.1769563348486
31
0
0
LINE
5
293
100
AcDbEntity
8
0
100
AcDbLine
10
-420.40928121877175
20
-136.1365717272798
30
0
11
-420.40928121877175
21
-145.30323839394646
31
0
0
LINE
5
294
100
AcDbEntity
8
0
100
AcDbLine
10
-414.19941455210505
20
-172.80323839394646
30
0
11
-414.19941455210505
21
-163.6365717272798
31
0
0
LINE
5
295
100
AcDbEntity
8
0
100
AcDbLine
10
-411.19941455210505
20
-165.47232812120686
30
0
11
-411.19941455210505
21
-156.3056614545402
31
0
0
LINE
5
296
100
AcDbEntity
8
0
100
AcDbLine
10
-414.19941455210505
20
-154.46990506061314
30
0
11
-414.19941455210505
21
-159.05323839394646
31
0
0
LINE
5
297
100
AcDbEntity
8
0
100
AcDbLine
10
-414.19941455210505
20
-154.46990506061314
30
0
11
-414.19941455210505
21
-149.8865717272798
31
0
0
LINE
5
298
100
AcDbEntity
8
0
100
AcDbLine
10
-411.19941455210505
20
-142.01028966818194
30
0
11
-411.19941455210505
21
-151.1769563348486
31
0
0
LINE
5
299
100
AcDbEntity
8
0
100
AcDbLine
10
-414.19941455210505
20
-136.1365717272798
30
0
11
-414.19941455210505
21
-145.30323839394646
31
0
0
LINE
5
300
100
AcDbEntity
8
0
100
AcDbLine
10
-407.98954788543836
20
-172.80323839394646
30
0
11
-407.98954788543836
21
-163.6365717272798
31
0
0
LINE
5
301
100
AcDbEntity
8
0
100
AcDbLine
10
-404.98954788543841
20
-165.47232812120686
30
0
11
-404.98954788543841
21
-156.3056614545402
31
0
0
LINE
5
302
100
AcDbEntity
8
0
100
AcDbLine
10
-407.98954788543836
20
-154.46990506061314
30
0
11
-407.98954788543836
21
-159.05323839394646
31
0
0
LINE
5
303
100
AcDbEntity
8
0
100
AcDbLine
10
-407.98954788543836
20
-154.46990506061314
30
0
11
-407.98954788543836
21
-149.8865717272798
31
0
0
LINE
5
304
100
AcDbEntity
8
0
100
AcDbLine
10
-404.98954788543841
20
-142.01028966818194
30
0
11
-404.98954788543841
21
-151.1769563348486
31
0
0
LINE
5
305
100
AcDbEntity
8
0
100
AcDbLine
10
-407.98954788543836
20
-136.1365717272798
30
0
11
-407.98954788543836
21
-145.30323839394646
31
0
0
LINE
5
306
100
AcDbEntity
8
0
100
AcDbLine
10
-401.77968121877171
20
-172.80323839394646
30
0
11
-401.77968121877171
21
-163.6365717272798
31
0
0
LINE
5
307
100
AcDbEntity
8
0
100
AcDbLine
10
-398.77968121877177
20
-165.47232812120686
30
0
11
-398.77968121877177
21
-156.3056614545402
31
0
0
LINE
5
308
100
AcDbEntity
8
0
100
AcDbLine
10
-401.77968121877171
20
-154.46990506061314
30
0
11
-401.77968121877171
21
-159.05323839394646
31
0
0
LINE
5
309
100
AcDbEntity
8
0
100
AcDbLine
10
-401.77968121877171
20
-154.46990506061314
30
0
11
-401.77968121877171
21
-149.8865717272798
31
0
0
LINE
5
310
100
AcDbEntity
8
0
100
AcDbLine
10
-398.77968121877177
20
-142.01028966818194
30
0
11
-398.77968121877177
21
-151.1769563348486
31
0
0
LINE
5
311
100
AcDbEntity
8
0
100
AcDbLine
10
-401.77968121877171
20
-136.1365717272798
30
0
11
-401.77968121877171
21
-145.30323839394646
31
0
0
LINE
5
312
100
AcDbEntity
8
0
100
AcDbLine
10
-395.56981455210507
20
-172.80323839394646
30
0
11
-395.56981455210507
21
-163.6365717272798
31
0
0
LINE
5
313
100
AcDbEntity
8
0
100
AcDbLine
10
-392.56981455210507
20
-165.47232812120686
30
0
11
-392.56981455210507
21
-156.3056614545402
31
0
0
LINE
5
314
100
AcDbEntity
8
0
100
AcDbLine
10
-395.56981455210507
20
-154.46990506061314
30
0
11
-395.56981455210507
21
-159.05323839394646
31
0
0
LINE
5
315
100
AcDbEntity
8
0
100
AcDbLine
10
-395.56981455210507
20
-154.46990506061314
30
0
11
-395.56981455210507
21
-149.8865717272798
31
0
0
LINE
5
316
100
AcDbEntity
8
0
100
AcDbLine
10
-392.56981455210507
20
-142.01028966818194
30
0
11
-392.56981455210507
21
-151.1769563348486
31
0
0
LINE
5
317
100
AcDbEntity
8
0
100
AcDbLine
10
-395.56981455210507
20
-136.1365717272798
30
0
11
-395.56981455210507
21
-145.30323839394646
31
0
0
LINE
5
318
100
AcDbEntity
8
0
100
AcDbLine
10
-389.35994788543837
20
-172.80323839394646
30
0
11
-389.35994788543837
21
-163.6365717272798
31
0
0
LINE
5
319
100
AcDbEntity
8
0
100
AcDbLine
10
-386.35994788543837
20
-165.47232812120686
30
0
11
-386.35994788543837
21
-156.3056614545402
31
0
0
LINE
5
320
100
AcDbEntity
8
0
100
AcDbLine
10
-389.35994788543837
20
-154.46990506061314
30
0
11
-389.35994788543837
21
-159.05323839394646
31
0
0
LINE
5
321
100
AcDbEntity
8
0
100
AcDbLine
10
-389.35994788543837
20
-154.46990506061314
30
0
11
-389.35994788543837
21
-149.8865717272798
31
0
0
LINE
5
322
100
AcDbEntity
8
0
100
AcDbLine
10
-386.35994788543837
20
-142.01028966818194
30
0
11
-386.35994788543837
21
-151.1769563348486
31
0
0
LINE
5
323
100
AcDbEntity
8
0
100
AcDbLine
10
-389.35994788543837
20
-136.1365717272798
30
0
11
-389.35994788543837
21
-145.30323839394646
31
0
0
LINE
5
324
100
AcDbEntity
8
0
100
AcDbLine
10
-383.15008121877167
20
-172.80323839394646
30
0
11
-383.15008121877167
21
-163.6365717272798
31
0
0
LINE
5
325
100
AcDbEntity
8
0
100
AcDbLine
10
-380.15008121877173
20
-165.47232812120686
30
0
11
-380.15008121877173
21
-156.3056614545402
31
0
0
LINE
5
326
100
AcDbEntity
8
0
100
AcDbLine
10
-383.15008121877167
20
-154.46990506061314
30
0
11
-383.15008121877167
21
-159.05323839394646
31
0
0
LINE
5
327
100
AcDbEntity
8
0
100
AcDbLine
10
-383.15008121877167
20
-154.46990506061314
30
0
11
-383.15008121877167
21
-149.8865717272798
31
0
0
LINE
5
328
100
AcDbEntity
8
0
100
AcDbLine
10
-380.15008121877173
20
-142.01028966818194
30
0
11
-380.15008121877173
21
-151.1769563348486
31
0
0
LINE
5
329
100
AcDbEntity
8
0
100
AcDbLine
10
-383.15008121877167
20
-136.1365717272798
30
0
11
-383.15008121877167
21
-145.30323839394646
31
0
0
LINE
5
330
100
AcDbEntity
8
0
100
AcDbLine
10
-376.94021455210503
20
-172.80323839394646
30
0
11
-376.94021455210503
21
-163.6365717272798
31
0
0
LINE
5
331
100
AcDbEntity
8
0
100
AcDbLine
10
-373.94021455210509
20
-165.47232812120686
30
0
11
-373.94021455210509
21
-156.3056614545402
31
0
0
LINE
5
332
100
AcDbEntity
8
0
100
AcDbLine
10
-376.94021455210503
20
-154.46990506061314
30
0
11
-376.94021455210503
21
-159.05323839394646
31
0
0
LINE
5
333
100
AcDbEntity
8
0
100
AcDbLine
10
-376.94021455210503
20
-154.46990506061314
30
0
11
-376.94021455210503
21
-149.8865717272798
31
0
0
LINE
5
334
100
AcDbEntity
8
0
100
AcDbLine
10
-373.94021455210509
20
-142.01028966818194
30
0
11
-373.94021455210509
21
-151.1769563348486
31
0
0
LINE
5
335
100
AcDbEntity
8
0
100
AcDbLine
10
-376.94021455210503
20
-136.1365717272798
30
0
11
-376.94021455210503
21
-145.30323839394646
31
0
0
LINE
5
336
100
AcDbEntity
8
0
100
AcDbLine
10
-370.73034788543839
20
-172.80323839394646
30
0
11
-370.73034788543839
21
-163.6365717272798
31
0
0
LINE
5
337
100
AcDbEntity
8
0
100
AcDbLine
10
-367.73034788543839
20
-165.47232812120686
30
0
11
-367.73034788543839
21
-156.3056614545402
31
0
0
LINE
5
338
100
AcDbEntity
8
0
100
AcDbLine
10
-370.73034788543839
20
-154.46990506061314
30
0
11
-370.73034788543839
21
-159.05323839394646
31
0
0
LINE
5
339
100
AcDbEntity
8
0
100
AcDbLine
10
-370.73034788543839
20
-154.46990506061314
30
0
11
-370.73034788543839
21
-149.8865717272798
31
0
0
LINE
5
340
100
AcDbEntity
8
0
100
AcDbLine
10
-367.73034788543839
20
-142.01028966818194
30
0
11
-367.73034788543839
21
-151.1769563348486
31
0
0
LINE
5
341
100
AcDbEntity
8
0
100
AcDbLine
10
-370.73034788543839
20
-136.1365717272798
30
0
11
-370.73034788543839
21
-145.30323839394646
31
0
0
LINE
5
342
100
AcDbEntity
8
0
100
AcDbLine
10
-364.52048121877169
20
-172.80323839394646
30
0
11
-364.52048121877169
21
-163.6365717272798
31
0
0
LINE
5
343
100
AcDbEntity
8
0
100
AcDbLine
10
-361.52048121877169
20
-165.47232812120686
30
0
11
-361.52048121877169
21
-156.3056614545402
31
0
0
LINE
5
344
100
AcDbEntity
8
0
100
AcDbLine
10
-364.52048121877169
20
-154.46990506061314
30
0
11
-364.52048121877169
21
-159.05323839394646
31
0
0
LINE
5
345
100
AcDbEntity
8
0
100
AcDbLine
10
-364.52048121877169
20
-154.46990506061314
30
0
11
-364.52048121877169
21
-149.8865717272798
31
0
0
LINE
5
346
100
AcDbEntity
8
0
100
AcDbLine
10
-361.52048121877169
20
-142.01028966818194
30
0
11
-361.52048121877169
21
-151.1769563348486
31
0
0
LINE
5
347
100
AcDbEntity
8
0
100
AcDbLine
10
-364.52048121877169
20
-136.1365717272798
30
0
11
-364.52048121877169
21
-145.30323839394646
31
0
0
LINE
5
348
100
AcDbEntity
8
0
100
AcDbLine
10
-358.31061455210499
20
-172.80323839394646
30
0
11
-358.31061455210499
21
-163.6365717272798
31
0
0
LINE
5
349
100
AcDbEntity
8
0
100
AcDbLine
10
-355.31061455210505
20
-165.47232812120686
30
0
11
-355.31061455210505
21
-156.3056614545402
31
0
0
LINE
5
350
100
AcDbEntity
8
0
100
AcDbLine
10
-358.31061455210499
20
-154.46990506061314
30
0
11
-358.31061455210499
21
-159.05323839394646
31
0
0
LINE
5
351
100
AcDbEntity
8
0
100
AcDbLine
10
-358.31061455210499
20
-154.46990506061314
30
0
11
-358.31061455210499
21
-149.8865717272798
31
0
0
LINE
5
352
100
AcDbEntity
8
0
100
AcDbLine
10
-355.31061455210505
20
-142.01028966818194
30
0
11
-355.31061455210505
21
-151.1769563348486
31
0
0
LINE
5
353
100
AcDbEntity
8
0
100
AcDbLine
10
-358.31061455210499
20
-136.1365717272798
30
0
11
-358.31061455210499
21
-145.30323839394646
31
0
0
LINE
5
354
100
AcDbEntity
8
0
100
AcDbLine
10
-352.10074788543835
20
-172.80323839394646
30
0
11
-352.10074788543835
21
-163.6365717272798
31
0
0
LINE
5
355
100
AcDbEntity
8
0
100
AcDbLine
10
-349.10074788543841
20
-165.47232812120686
30
0
11
-349.10074788543841
21
-156.3056614545402
31
0
0
LINE
5
356
100
AcDbEntity
8
0
100
AcDbLine
10
-352.10074788543835
20
-154.46990506061314
30
0
11
-352.10074788543835
21
-159.05323839394646
31
0
0
LINE
5
357
100
AcDbEntity
8
0
100
AcDbLine
10
-352.10074788543835
20
-154.46990506061314
30
0
11
-352.10074788543835
21
-149.8865717272798
31
0
0
LINE
5
358
100
AcDbEntity
8
0
100
AcDbLine
10
-349.10074788543841
20
-142.01028966818194
30
0
11
-349.10074788543841
21
-151.1769563348486
31
0
0
LINE
5
359
100
AcDbEntity
8
0
100
AcDbLine
10
-352.10074788543835
20
-136.1365717272798
30
0
11
-352.10074788543835
21
-145.30323839394646
31
0
0
CIRCLE
5
360
100
AcDbEntity
8
0
100
AcDbCircle
10
-490.37255085429484
20
-246.41671022252126
30
0
40
7.5000000000000124
210
0
220
-0
230
1
0
CIRCLE
5
361
100
AcDbEntity
8
0
100
AcDbCircle
10
-540.3725508542949
20
-246.41671022252129
30
0
40
7.5000000000000124
210
0
220
-0
230
1
0
CIRCLE
5
362
100
AcDbEntity
8
0
100
AcDbCircle
10
-565.3725508542949
20
-246.41671022252123
30
0
40
7.5000000000000124
210
0
220
-0
230
1
0
CIRCLE
5
363
100
AcDbEntity
8
0
100
AcDbCircle
10
-515.3725508542949
20
-246.41671022252126
30
0
40
7.5000000000000124
210
0
220
-0
230
1
0
LWPOLYLINE
5
364
100
AcDbEntity
8
0
100
AcDbPolyline
90
4
70
1
43
0.0
10
-582.5911652665568
20
-193.39360293283275
10
-472.5911652665568
20
-193.39360293283275
10
-472.5911652665568
20
-263.39360293283272
10
-582.5911652665568
20
-263.39360293283272
0
LWPOLYLINE
5
365
100
AcDbEntity
8
0
100
AcDbPolyline
90
4
70
1
43
0.0
10
-565.3725508542949
20
-208.33372730342745
10
-540.3725508542949
20
-208.33372730342745
10
-540.3725508542949
20
-216.33372730342745
10
-565.3725508542949
20
-216.33372730342745
0
LWPOLYLINE
5
366
100
AcDbEntity
8
0
100
AcDbPolyline
90
4
70
1
43
0.0
10
-490.37255085429484
20
-208.44984912543839
10
-515.3725508542949
20
-208.44984912543839
10
-515.3725508542949
20
-216.44984912543839
10
-490.37255085429484
20
-216.44984912543839
0
CIRCLE
5
367
100
AcDbEntity
8
0
100
AcDbCircle
10
-490.37255085429484
20
-258.39439213035854
30
0
40
1.4999999999999858
210
0
220
0
230
1
0
CIRCLE
5
368
100
AcDbEntity
8
0
100
AcDbCircle
10
-517.62255085429479
20
-258.43727294462201
30
0
40
1.4999999999999858
210
0
220
0
230
1
0
CIRCLE
5
369
100
AcDbEntity
8
0
100
AcDbCircle
10
-540.3725508542949
20
-258.41303070755521
30
0
40
1.4999999999999858
210
0
220
0
230
1
0
CIRCLE
5
370
100
AcDbEntity
8
0
100
AcDbCircle
10
-563.1225508542949
20
-258.41303070755521
30
0
40
1.4999999999999858
210
0
220
0
230
1
0
CIRCLE
5
371
100
AcDbEntity
8
0
100
AcDbCircle
10
-513.12255085429479
20
-258.43727294462201
30
0
40
1.4999999999999858
210
0
220
0
230
1
0
CIRCLE
5
372
100
AcDbEntity
8
0
100
AcDbCircle
10
-544.8725508542949
20
-258.41303070755521
30
0
40
1.4999999999999858
210
0
220
0
230
1
0
CIRCLE
5
373
100
AcDbEntity
8
0
100
AcDbCircle
10
-535.87255085429479
20
-258.41303070755521
30
0
40
1.4999999999999858
210
0
220
0
230
1
0
CIRCLE
5
374
100
AcDbEntity
8
0
100
AcDbCircle
10
-558.6225508542949
20
-258.41303070755521
30
0
40
1.4999999999999858
210
0
220
0
230
1
0
CIRCLE
5
375
100
AcDbEntity
8
0
100
AcDbCircle
10
-572.12255085429479
20
-258.41303070755521
30
0
40
1.4999999999999858
210
0
220
0
230
1
0
CIRCLE
5
376
100
AcDbEntity
8
0
100
AcDbCircle
10
-567.62255085429479
20
-258.41303070755521
30
0
40
1.4999999999999858
210
0
220
0
230
1
0
ENDSEC
0
SECTION
2
OBJECTS
0
DICTIONARY
5
C
100
AcDbDictionary
3
ACAD_GROUP
350
D
3
ACAD_MLINESTYLE
350
17
0
DICTIONARY
5
D
100
AcDbDictionary
0
DICTIONARY
5
1A
330
C
100
AcDbDictionary
0
DICTIONARY
5
17
100
AcDbDictionary
0
ENDSEC
0
EOF
