0
SECTION
2
HEADER
9
$INSUNITS
70
4
9
$ACADVER
1
AC1014
9
$HANDSEED
5
FFFF
0
ENDSEC
0
SECTION
2
TABLES
0
TABLE
2
VPORT
5
8
100
AcDbSymbolTable
0
ENDTAB
0
TABLE
2
LTYPE
5
5
100
AcDbSymbolTable
0
LTYPE
5
14
100
AcDbSymbolTableRecord
100
AcDbLinetypeTableRecord
2
BYBLOCK
70
0
0
LTYPE
5
15
100
AcDbSymbolTableRecord
100
AcDbLinetypeTableRecord
2
BYLAYER
70
0
0
LTYPE
5
16
100
AcDbSymbolTableRecord
100
AcDbLinetypeTableRecord
2
DASHED
70
0
3
Dashed __ __ __ __ __ __ __ __ __ __ __ __ __ _
72
65
73
2
40
0.75
49
0.5
74
0
49
-0.25
74
0
0
ENDTAB
0
TABLE
2
LAYER
5
2
100
AcDbSymbolTable
70
3
0
LAYER
5
50
100
AcDbSymbolTableRecord
100
AcDbLayerTableRecord
2
1
70
0
62
7
6
DASHED
0
LAYER
5
51
100
AcDbSymbolTableRecord
100
AcDbLayerTableRecord
2
0
70
0
62
7
6
CONTINUOUS
0
ENDTAB
0
TABLE
2
STYLE
5
3
100
AcDbSymbolTable
70
1
0
STYLE
5
11
100
AcDbSymbolTableRecord
100
AcDbTextStyleTableRecord
2
STANDARD
70
0
0
ENDTAB
0
TABLE
2
VIEW
5
6
100
AcDbSymbolTable
70
0
0
ENDTAB
0
TABLE
2
UCS
5
7
100
AcDbSymbolTable
70
0
0
ENDTAB
0
TABLE
2
APPID
5
9
100
AcDbSymbolTable
70
2
0
APPID
5
12
100
AcDbSymbolTableRecord
100
AcDbRegAppTableRecord
2
ACAD
70
0
0
ENDTAB
0
TABLE
2
DIMSTYLE
5
A
100
AcDbSymbolTable
70
1
0
ENDTAB
0
TABLE
2
BLOCK_RECORD
5
1
100
AcDbSymbolTable
70
1
0
BLOCK_RECORD
5
1F
100
AcDbSymbolTableRecord
100
AcDbBlockTableRecord
2
*MODEL_SPACE
0
BLOCK_RECORD
5
1B
100
AcDbSymbolTableRecord
100
AcDbBlockTableRecord
2
*PAPER_SPACE
0
ENDTAB
0
ENDSEC
0
SECTION
2
BLOCKS
0
BLOCK
5
20
100
AcDbEntity
100
AcDbBlockBegin
2
*MODEL_SPACE
0
ENDBLK
5
21
100
AcDbEntity
100
AcDbBlockEnd
0
BLOCK
5
1C
100
AcDbEntity
100
AcDbBlockBegin
2
*PAPER_SPACE
0
ENDBLK
5
1D
100
AcDbEntity
100
AcDbBlockEnd
0
ENDSEC
0
SECTION
2
ENTITIES
0
LWPOLYLINE
5
100
100
AcDbEntity
8
0
100
AcDbPolyline
90
36
70
1
43
0.0
10
143.11111111111114
20
9.4000000000000039
10
156.60000000000002
20
9.4000000000000039
10
156.60000000000002
20
27
10
161
20
27
10
161
20
49
10
156.60000000000002
20
49
10
156.60000000000002
20
71
10
161
20
71
10
161
20
93
10
156.60000000000002
20
93
10
156.60000000000002
20
115
10
4.399999999999995
20
115
10
4.3999999999999968
20
93
10
0
20
93
10
0
20
71
10
4.3999999999999977
20
71
10
4.3999999999999968
20
49
10
0
20
49
10
0
20
27
10
4.3999999999999977
20
27
10
4.3999999999999995
20
9.4000000000000039
10
17.888888888888889
20
9.4000000000000004
10
17.888888888888889
20
5
10
35.777777777777771
20
5
10
35.777777777777771
20
9.4000000000000004
10
53.666666666666671
20
9.4000000000000004
10
53.666666666666671
20
5
10
71.555555555555543
20
5
10
71.555555555555543
20
9.4000000000000004
10
89.444444444444443
20
9.4000000000000004
10
89.444444444444443
20
5
10
107.33333333333334
20
5
10
107.33333333333334
20
9.4000000000000004
10
125.22222222222224
20
9.4000000000000004
10
125.22222222222224
20
5
10
143.11111111111111
20
5
0
LWPOLYLINE
5
101
100
AcDbEntity
8
0
100
AcDbPolyline
90
4
70
1
43
0.0
10
47.666666666666693
20
26.499999999999986
10
47.666666666666671
20
32.5
10
53.666666666666671
20
32.5
10
53.666666666666671
20
26.499999999999993
0
LWPOLYLINE
5
102
100
AcDbEntity
8
0
100
AcDbPolyline
90
4
70
1
43
0.0
10
55.33333333333335
20
26.499999999999986
10
55.333333333333343
20
32.5
10
61.333333333333336
20
32.5
10
61.333333333333336
20
26.499999999999993
0
LWPOLYLINE
5
103
100
AcDbEntity
8
0
100
AcDbPolyline
90
4
70
1
43
0.0
10
63.000000000000028
20
26.499999999999986
10
63.000000000000007
20
32.5
10
69
20
32.5
10
69
20
26.499999999999993
0
LWPOLYLINE
5
104
100
AcDbEntity
8
0
100
AcDbPolyline
90
4
70
1
43
0.0
10
70.6666666666667
20
26.499999999999986
10
70.666666666666686
20
32.5
10
76.666666666666686
20
32.5
10
76.666666666666686
20
26.499999999999993
0
LWPOLYLINE
5
105
100
AcDbEntity
8
0
100
AcDbPolyline
90
4
70
1
43
0.0
10
78.333333333333357
20
26.499999999999986
10
78.333333333333343
20
32.5
10
84.333333333333343
20
32.5
10
84.333333333333343
20
26.499999999999993
0
LWPOLYLINE
5
106
100
AcDbEntity
8
0
100
AcDbPolyline
90
4
70
1
43
0.0
10
86.000000000000057
20
26.499999999999986
10
86.000000000000014
20
32.5
10
92.000000000000014
20
32.5
10
92.000000000000014
20
26.499999999999993
0
LWPOLYLINE
5
107
100
AcDbEntity
8
0
100
AcDbPolyline
90
4
70
1
43
0.0
10
93.666666666666714
20
26.499999999999986
10
93.666666666666671
20
32.5
10
99.666666666666671
20
32.5
10
99.666666666666671
20
26.499999999999993
0
LWPOLYLINE
5
108
100
AcDbEntity
8
0
100
AcDbPolyline
90
4
70
1
43
0.0
10
101.33333333333337
20
26.499999999999986
10
101.33333333333334
20
32.5
10
107.33333333333334
20
32.5
10
107.33333333333334
20
26.499999999999993
0
LWPOLYLINE
5
109
100
AcDbEntity
8
0
100
AcDbPolyline
90
4
70
1
43
0.0
10
47.666666666666693
20
34.35714285714284
10
47.666666666666671
20
40.357142857142854
10
53.666666666666671
20
40.357142857142854
10
53.666666666666671
20
34.357142857142847
0
LWPOLYLINE
5
110
100
AcDbEntity
8
0
100
AcDbPolyline
90
4
70
1
43
0.0
10
55.33333333333335
20
34.35714285714284
10
55.333333333333343
20
40.357142857142854
10
61.333333333333336
20
40.357142857142854
10
61.333333333333336
20
34.357142857142847
0
LWPOLYLINE
5
111
100
AcDbEntity
8
0
100
AcDbPolyline
90
4
70
1
43
0.0
10
63.000000000000028
20
34.35714285714284
10
63.000000000000007
20
40.357142857142854
10
69
20
40.357142857142854
10
69
20
34.357142857142847
0
LWPOLYLINE
5
112
100
AcDbEntity
8
0
100
AcDbPolyline
90
4
70
1
43
0.0
10
70.6666666666667
20
34.35714285714284
10
70.666666666666686
20
40.357142857142854
10
76.666666666666686
20
40.357142857142854
10
76.666666666666686
20
34.357142857142847
0
LWPOLYLINE
5
113
100
AcDbEntity
8
0
100
AcDbPolyline
90
4
70
1
43
0.0
10
78.333333333333357
20
34.35714285714284
10
78.333333333333343
20
40.357142857142854
10
84.333333333333343
20
40.357142857142854
10
84.333333333333343
20
34.357142857142847
0
LWPOLYLINE
5
114
100
AcDbEntity
8
0
100
AcDbPolyline
90
4
70
1
43
0.0
10
86.000000000000057
20
34.35714285714284
10
86.000000000000014
20
40.357142857142854
10
92.000000000000014
20
40.357142857142854
10
92.000000000000014
20
34.357142857142847
0
LWPOLYLINE
5
115
100
AcDbEntity
8
0
100
AcDbPolyline
90
4
70
1
43
0.0
10
93.666666666666714
20
34.35714285714284
10
93.666666666666671
20
40.357142857142854
10
99.666666666666671
20
40.357142857142854
10
99.666666666666671
20
34.357142857142847
0
LWPOLYLINE
5
116
100
AcDbEntity
8
0
100
AcDbPolyline
90
4
70
1
43
0.0
10
101.33333333333337
20
34.35714285714284
10
101.33333333333334
20
40.357142857142854
10
107.33333333333334
20
40.357142857142854
10
107.33333333333334
20
34.357142857142847
0
LWPOLYLINE
5
117
100
AcDbEntity
8
0
100
AcDbPolyline
90
4
70
1
43
0.0
10
47.666666666666693
20
42.214285714285694
10
47.666666666666671
20
48.214285714285708
10
53.666666666666671
20
48.214285714285708
10
53.666666666666671
20
42.214285714285715
0
LWPOLYLINE
5
118
100
AcDbEntity
8
0
100
AcDbPolyline
90
4
70
1
43
0.0
10
55.33333333333335
20
42.214285714285694
10
55.333333333333343
20
48.214285714285708
10
61.333333333333336
20
48.214285714285708
10
61.333333333333336
20
42.214285714285715
0
LWPOLYLINE
5
119
100
AcDbEntity
8
0
100
AcDbPolyline
90
4
70
1
43
0.0
10
63.000000000000028
20
42.214285714285694
10
63.000000000000007
20
48.214285714285708
10
69
20
48.214285714285708
10
69
20
42.214285714285715
0
LWPOLYLINE
5
120
100
AcDbEntity
8
0
100
AcDbPolyline
90
4
70
1
43
0.0
10
70.6666666666667
20
42.214285714285694
10
70.666666666666686
20
48.214285714285708
10
76.666666666666686
20
48.214285714285708
10
76.666666666666686
20
42.214285714285715
0
LWPOLYLINE
5
121
100
AcDbEntity
8
0
100
AcDbPolyline
90
4
70
1
43
0.0
10
78.333333333333357
20
42.214285714285694
10
78.333333333333343
20
48.214285714285708
10
84.333333333333343
20
48.214285714285708
10
84.333333333333343
20
42.214285714285715
0
LWPOLYLINE
5
122
100
AcDbEntity
8
0
100
AcDbPolyline
90
4
70
1
43
0.0
10
86.000000000000057
20
42.214285714285694
10
86.000000000000014
20
48.214285714285708
10
92.000000000000014
20
48.214285714285708
10
92.000000000000014
20
42.214285714285715
0
LWPOLYLINE
5
123
100
AcDbEntity
8
0
100
AcDbPolyline
90
4
70
1
43
0.0
10
93.666666666666714
20
42.214285714285694
10
93.666666666666671
20
48.214285714285708
10
99.666666666666671
20
48.214285714285708
10
99.666666666666671
20
42.214285714285715
0
LWPOLYLINE
5
124
100
AcDbEntity
8
0
100
AcDbPolyline
90
4
70
1
43
0.0
10
101.33333333333337
20
42.214285714285694
10
101.33333333333334
20
48.214285714285708
10
107.33333333333334
20
48.214285714285708
10
107.33333333333334
20
42.214285714285715
0
LWPOLYLINE
5
125
100
AcDbEntity
8
0
100
AcDbPolyline
90
4
70
1
43
0.0
10
47.666666666666693
20
50.071428571428562
10
47.666666666666671
20
56.071428571428577
10
53.666666666666671
20
56.071428571428577
10
53.666666666666671
20
50.071428571428562
0
LWPOLYLINE
5
126
100
AcDbEntity
8
0
100
AcDbPolyline
90
4
70
1
43
0.0
10
55.33333333333335
20
50.071428571428562
10
55.333333333333343
20
56.071428571428577
10
61.333333333333336
20
56.071428571428577
10
61.333333333333336
20
50.071428571428562
0
LWPOLYLINE
5
127
100
AcDbEntity
8
0
100
AcDbPolyline
90
4
70
1
43
0.0
10
63.000000000000028
20
50.071428571428562
10
63.000000000000007
20
56.071428571428577
10
69
20
56.071428571428577
10
69
20
50.071428571428562
0
LWPOLYLINE
5
128
100
AcDbEntity
8
0
100
AcDbPolyline
90
4
70
1
43
0.0
10
70.6666666666667
20
50.071428571428562
10
70.666666666666686
20
56.071428571428577
10
76.666666666666686
20
56.071428571428577
10
76.666666666666686
20
50.071428571428562
0
LWPOLYLINE
5
129
100
AcDbEntity
8
0
100
AcDbPolyline
90
4
70
1
43
0.0
10
78.333333333333357
20
50.071428571428562
10
78.333333333333343
20
56.071428571428577
10
84.333333333333343
20
56.071428571428577
10
84.333333333333343
20
50.071428571428562
0
LWPOLYLINE
5
130
100
AcDbEntity
8
0
100
AcDbPolyline
90
4
70
1
43
0.0
10
86.000000000000057
20
50.071428571428562
10
86.000000000000014
20
56.071428571428577
10
92.000000000000014
20
56.071428571428577
10
92.000000000000014
20
50.071428571428562
0
LWPOLYLINE
5
131
100
AcDbEntity
8
0
100
AcDbPolyline
90
4
70
1
43
0.0
10
93.666666666666714
20
50.071428571428562
10
93.666666666666671
20
56.071428571428577
10
99.666666666666671
20
56.071428571428577
10
99.666666666666671
20
50.071428571428562
0
LWPOLYLINE
5
132
100
AcDbEntity
8
0
100
AcDbPolyline
90
4
70
1
43
0.0
10
101.33333333333337
20
50.071428571428562
10
101.33333333333334
20
56.071428571428577
10
107.33333333333334
20
56.071428571428577
10
107.33333333333334
20
50.071428571428562
0
LWPOLYLINE
5
133
100
AcDbEntity
8
0
100
AcDbPolyline
90
4
70
1
43
0.0
10
47.666666666666693
20
57.928571428571409
10
47.666666666666671
20
63.928571428571423
10
53.666666666666671
20
63.928571428571423
10
53.666666666666671
20
57.928571428571431
0
LWPOLYLINE
5
134
100
AcDbEntity
8
0
100
AcDbPolyline
90
4
70
1
43
0.0
10
55.33333333333335
20
57.928571428571409
10
55.333333333333343
20
63.928571428571423
10
61.333333333333336
20
63.928571428571423
10
61.333333333333336
20
57.928571428571431
0
LWPOLYLINE
5
135
100
AcDbEntity
8
0
100
AcDbPolyline
90
4
70
1
43
0.0
10
63.000000000000028
20
57.928571428571409
10
63.000000000000007
20
63.928571428571423
10
69
20
63.928571428571423
10
69
20
57.928571428571431
0
LWPOLYLINE
5
136
100
AcDbEntity
8
0
100
AcDbPolyline
90
4
70
1
43
0.0
10
70.6666666666667
20
57.928571428571409
10
70.666666666666686
20
63.928571428571423
10
76.666666666666686
20
63.928571428571423
10
76.666666666666686
20
57.928571428571431
0
LWPOLYLINE
5
137
100
AcDbEntity
8
0
100
AcDbPolyline
90
4
70
1
43
0.0
10
78.333333333333357
20
57.928571428571409
10
78.333333333333343
20
63.928571428571423
10
84.333333333333343
20
63.928571428571423
10
84.333333333333343
20
57.928571428571431
0
LWPOLYLINE
5
138
100
AcDbEntity
8
0
100
AcDbPolyline
90
4
70
1
43
0.0
10
86.000000000000057
20
57.928571428571409
10
86.000000000000014
20
63.928571428571423
10
92.000000000000014
20
63.928571428571423
10
92.000000000000014
20
57.928571428571431
0
LWPOLYLINE
5
139
100
AcDbEntity
8
0
100
AcDbPolyline
90
4
70
1
43
0.0
10
93.666666666666714
20
57.928571428571409
10
93.666666666666671
20
63.928571428571423
10
99.666666666666671
20
63.928571428571423
10
99.666666666666671
20
57.928571428571431
0
LWPOLYLINE
5
140
100
AcDbEntity
8
0
100
AcDbPolyline
90
4
70
1
43
0.0
10
101.33333333333337
20
57.928571428571409
10
101.33333333333334
20
63.928571428571423
10
107.33333333333334
20
63.928571428571423
10
107.33333333333334
20
57.928571428571431
0
LWPOLYLINE
5
141
100
AcDbEntity
8
0
100
AcDbPolyline
90
4
70
1
43
0.0
10
47.666666666666693
20
65.785714285714278
10
47.666666666666671
20
71.785714285714292
10
53.666666666666671
20
71.785714285714292
10
53.666666666666671
20
65.785714285714278
0
LWPOLYLINE
5
142
100
AcDbEntity
8
0
100
AcDbPolyline
90
4
70
1
43
0.0
10
55.33333333333335
20
65.785714285714278
10
55.333333333333343
20
71.785714285714292
10
61.333333333333336
20
71.785714285714292
10
61.333333333333336
20
65.785714285714278
0
LWPOLYLINE
5
143
100
AcDbEntity
8
0
100
AcDbPolyline
90
4
70
1
43
0.0
10
63.000000000000028
20
65.785714285714278
10
63.000000000000007
20
71.785714285714292
10
69
20
71.785714285714292
10
69
20
65.785714285714278
0
LWPOLYLINE
5
144
100
AcDbEntity
8
0
100
AcDbPolyline
90
4
70
1
43
0.0
10
70.6666666666667
20
65.785714285714278
10
70.666666666666686
20
71.785714285714292
10
76.666666666666686
20
71.785714285714292
10
76.666666666666686
20
65.785714285714278
0
LWPOLYLINE
5
145
100
AcDbEntity
8
0
100
AcDbPolyline
90
4
70
1
43
0.0
10
78.333333333333357
20
65.785714285714278
10
78.333333333333343
20
71.785714285714292
10
84.333333333333343
20
71.785714285714292
10
84.333333333333343
20
65.785714285714278
0
LWPOLYLINE
5
146
100
AcDbEntity
8
0
100
AcDbPolyline
90
4
70
1
43
0.0
10
86.000000000000057
20
65.785714285714278
10
86.000000000000014
20
71.785714285714292
10
92.000000000000014
20
71.785714285714292
10
92.000000000000014
20
65.785714285714278
0
LWPOLYLINE
5
147
100
AcDbEntity
8
0
100
AcDbPolyline
90
4
70
1
43
0.0
10
93.666666666666714
20
65.785714285714278
10
93.666666666666671
20
71.785714285714292
10
99.666666666666671
20
71.785714285714292
10
99.666666666666671
20
65.785714285714278
0
LWPOLYLINE
5
148
100
AcDbEntity
8
0
100
AcDbPolyline
90
4
70
1
43
0.0
10
101.33333333333337
20
65.785714285714278
10
101.33333333333334
20
71.785714285714292
10
107.33333333333334
20
71.785714285714292
10
107.33333333333334
20
65.785714285714278
0
LWPOLYLINE
5
149
100
AcDbEntity
8
0
100
AcDbPolyline
90
4
70
1
43
0.0
10
47.666666666666693
20
73.642857142857139
10
47.666666666666671
20
79.642857142857139
10
53.666666666666671
20
79.642857142857139
10
53.666666666666671
20
73.642857142857139
0
LWPOLYLINE
5
150
100
AcDbEntity
8
0
100
AcDbPolyline
90
4
70
1
43
0.0
10
55.33333333333335
20
73.642857142857139
10
55.333333333333343
20
79.642857142857139
10
61.333333333333336
20
79.642857142857139
10
61.333333333333336
20
73.642857142857139
0
LWPOLYLINE
5
151
100
AcDbEntity
8
0
100
AcDbPolyline
90
4
70
1
43
0.0
10
63.000000000000028
20
73.642857142857139
10
63.000000000000007
20
79.642857142857139
10
69
20
79.642857142857139
10
69
20
73.642857142857139
0
LWPOLYLINE
5
152
100
AcDbEntity
8
0
100
AcDbPolyline
90
4
70
1
43
0.0
10
70.6666666666667
20
73.642857142857139
10
70.666666666666686
20
79.642857142857139
10
76.666666666666686
20
79.642857142857139
10
76.666666666666686
20
73.642857142857139
0
LWPOLYLINE
5
153
100
AcDbEntity
8
0
100
AcDbPolyline
90
4
70
1
43
0.0
10
78.333333333333357
20
73.642857142857139
10
78.333333333333343
20
79.642857142857139
10
84.333333333333343
20
79.642857142857139
10
84.333333333333343
20
73.642857142857139
0
LWPOLYLINE
5
154
100
AcDbEntity
8
0
100
AcDbPolyline
90
4
70
1
43
0.0
10
86.000000000000057
20
73.642857142857139
10
86.000000000000014
20
79.642857142857139
10
92.000000000000014
20
79.642857142857139
10
92.000000000000014
20
73.642857142857139
0
LWPOLYLINE
5
155
100
AcDbEntity
8
0
100
AcDbPolyline
90
4
70
1
43
0.0
10
93.666666666666714
20
73.642857142857139
10
93.666666666666671
20
79.642857142857139
10
99.666666666666671
20
79.642857142857139
10
99.666666666666671
20
73.642857142857139
0
LWPOLYLINE
5
156
100
AcDbEntity
8
0
100
AcDbPolyline
90
4
70
1
43
0.0
10
101.33333333333337
20
73.642857142857139
10
101.33333333333334
20
79.642857142857139
10
107.33333333333334
20
79.642857142857139
10
107.33333333333334
20
73.642857142857139
0
LWPOLYLINE
5
157
100
AcDbEntity
8
0
100
AcDbPolyline
90
4
70
1
43
0.0
10
47.666666666666693
20
81.499999999999986
10
47.666666666666671
20
87.5
10
53.666666666666671
20
87.5
10
53.666666666666671
20
81.499999999999986
0
LWPOLYLINE
5
158
100
AcDbEntity
8
0
100
AcDbPolyline
90
4
70
1
43
0.0
10
55.33333333333335
20
81.499999999999986
10
55.333333333333343
20
87.5
10
61.333333333333336
20
87.5
10
61.333333333333336
20
81.499999999999986
0
LWPOLYLINE
5
159
100
AcDbEntity
8
0
100
AcDbPolyline
90
4
70
1
43
0.0
10
63.000000000000028
20
81.499999999999986
10
63.000000000000007
20
87.5
10
69
20
87.5
10
69
20
81.499999999999986
0
LWPOLYLINE
5
160
100
AcDbEntity
8
0
100
AcDbPolyline
90
4
70
1
43
0.0
10
70.6666666666667
20
81.499999999999986
10
70.666666666666686
20
87.5
10
76.666666666666686
20
87.5
10
76.666666666666686
20
81.499999999999986
0
LWPOLYLINE
5
161
100
AcDbEntity
8
0
100
AcDbPolyline
90
4
70
1
43
0.0
10
78.333333333333357
20
81.499999999999986
10
78.333333333333343
20
87.5
10
84.333333333333343
20
87.5
10
84.333333333333343
20
81.499999999999986
0
LWPOLYLINE
5
162
100
AcDbEntity
8
0
100
AcDbPolyline
90
4
70
1
43
0.0
10
86.000000000000057
20
81.499999999999986
10
86.000000000000014
20
87.5
10
92.000000000000014
20
87.5
10
92.000000000000014
20
81.499999999999986
0
LWPOLYLINE
5
163
100
AcDbEntity
8
0
100
AcDbPolyline
90
4
70
1
43
0.0
10
93.666666666666714
20
81.499999999999986
10
93.666666666666671
20
87.5
10
99.666666666666671
20
87.5
10
99.666666666666671
20
81.499999999999986
0
LWPOLYLINE
5
164
100
AcDbEntity
8
0
100
AcDbPolyline
90
4
70
1
43
0.0
10
107.33333333333334
20
87.5
10
107.33333333333334
20
81.499999999999986
10
101.33333333333334
20
81.499999999999986
10
101.33333333333334
20
87.5
0
LWPOLYLINE
5
165
100
AcDbEntity
8
0
100
AcDbPolyline
90
4
70
1
43
0.0
10
199.33333333333326
20
-49.99999999999973
10
184.33333333333326
20
-49.999999999999744
10
184.33333333333331
20
-43.999999999999716
10
199.33333333333331
20
-43.999999999999709
0
LWPOLYLINE
5
166
100
AcDbEntity
8
0
100
AcDbPolyline
90
4
70
1
43
0.0
10
199.33333333333326
20
-58.333333333333073
10
184.33333333333326
20
-58.33333333333308
10
184.33333333333331
20
-52.333333333333059
10
199.33333333333331
20
-52.333333333333101
0
LWPOLYLINE
5
167
100
AcDbEntity
8
0
100
AcDbPolyline
90
4
70
1
43
0.0
10
199.33333333333326
20
-66.66666666666643
10
184.33333333333326
20
-66.666666666666444
10
184.33333333333331
20
-60.666666666666416
10
199.33333333333331
20
-60.666666666666444
0
LWPOLYLINE
5
168
100
AcDbEntity
8
0
100
AcDbPolyline
90
4
70
1
43
0.0
10
199.33333333333326
20
-74.999999999999801
10
184.33333333333326
20
-74.999999999999815
10
184.33333333333331
20
-68.999999999999801
10
199.33333333333331
20
-68.999999999999815
0
LWPOLYLINE
5
169
100
AcDbEntity
8
0
100
AcDbPolyline
90
4
70
1
43
0.0
10
199.33333333333326
20
-83.333333333333158
10
184.33333333333326
20
-83.333333333333158
10
184.33333333333331
20
-77.333333333333158
10
199.33333333333331
20
-77.333333333333172
0
LWPOLYLINE
5
170
100
AcDbEntity
8
0
100
AcDbPolyline
90
4
70
1
43
0.0
10
199.33333333333326
20
-91.666666666666515
10
184.33333333333326
20
-91.666666666666515
10
184.33333333333331
20
-85.666666666666515
10
199.33333333333331
20
-85.666666666666544
0
LWPOLYLINE
5
171
100
AcDbEntity
8
0
100
AcDbPolyline
90
4
70
1
43
0.0
10
199.33333333333326
20
-99.999999999999886
10
184.33333333333326
20
-99.999999999999886
10
184.33333333333331
20
-93.999999999999886
10
199.33333333333331
20
-93.999999999999915
0
LWPOLYLINE
5
172
100
AcDbEntity
8
0
100
AcDbPolyline
90
4
70
1
43
0.0
10
199.33333333333326
20
-108.33333333333323
10
184.33333333333326
20
-108.33333333333323
10
184.33333333333331
20
-102.33333333333323
10
199.33333333333331
20
-102.33333333333327
0
LWPOLYLINE
5
173
100
AcDbEntity
8
0
100
AcDbPolyline
90
4
70
1
43
0.0
10
199.33333333333326
20
-116.6666666666666
10
184.33333333333326
20
-116.6666666666666
10
184.33333333333331
20
-110.6666666666666
10
199.33333333333331
20
-110.66666666666663
0
LWPOLYLINE
5
174
100
AcDbEntity
8
0
100
AcDbPolyline
90
4
70
1
43
0.0
10
199.33333333333326
20
-124.99999999999997
10
184.33333333333326
20
-124.99999999999997
10
184.33333333333331
20
-118.99999999999994
10
199.33333333333331
20
-118.99999999999999
0
LWPOLYLINE
5
175
100
AcDbEntity
8
0
100
AcDbPolyline
90
40
70
1
43
0.0
10
187.99999999999997
20
-4.3999999999996042
10
187.99999999999997
20
3.8691272408186705e-13
10
170.39999999999998
20
4.1597917630489301e-13
10
170.39999999999995
20
-13.636363636363267
10
165.99999999999994
20
-13.636363636363262
10
165.99999999999997
20
-27.272727272726939
10
170.39999999999998
20
-27.272727272726943
10
170.39999999999995
20
-40.909090909090622
10
165.99999999999994
20
-40.909090909090615
10
165.99999999999997
20
-54.545454545454291
10
170.39999999999998
20
-54.545454545454284
10
170.39999999999995
20
-68.181818181817974
10
165.99999999999994
20
-68.181818181817988
10
165.99999999999997
20
-81.818181818181657
10
170.39999999999998
20
-81.818181818181657
10
170.39999999999995
20
-95.45454545454534
10
165.99999999999994
20
-95.45454545454534
10
165.99999999999997
20
-109.09090909090904
10
170.39999999999998
20
-109.09090909090904
10
170.39999999999995
20
-122.72727272727272
10
165.99999999999994
20
-122.72727272727269
10
165.99999999999997
20
-136.36363636363637
10
170.39999999999998
20
-136.36363636363637
10
170.39999999999995
20
-150.00000000000003
10
187.99999999999994
20
-150.00000000000003
10
187.99999999999997
20
-145.60000000000002
10
209.99999999999997
20
-145.59999999999999
10
209.99999999999994
20
-150.00000000000003
10
231.99999999999991
20
-150.00000000000003
10
231.99999999999991
20
-145.59999999999999
10
253.99999999999991
20
-145.59999999999999
10
253.99999999999991
20
-150
10
275.99999999999989
20
-149.99999999999997
10
275.99999999999989
20
4.7961634663806763e-13
10
253.99999999999991
20
4.6668326519910857e-13
10
253.99999999999991
20
-4.3999999999995474
10
231.99999999999991
20
-4.3999999999995811
10
231.99999999999991
20
4.0467629247586956e-13
10
209.99999999999994
20
4.3115612841110366e-13
10
209.99999999999994
20
-4.3999999999995651
0
LWPOLYLINE
5
176
100
AcDbEntity
8
0
100
AcDbPolyline
90
76
70
1
43
0.0
10
17.888888888888896
20
-4.3999999999999595
10
17.888888888888889
20
2.4980018054066022e-14
10
0
20
1.7763568394002505e-14
10
0
20
-13.636363636363582
10
4.4000000000000004
20
-13.63636363636358
10
4.4000000000000004
20
-27.272727272727177
10
0
20
-27.272727272727177
10
0
20
-40.909090909090779
10
4.4000000000000004
20
-40.909090909090779
10
4.4000000000000004
20
-54.545454545454376
10
0
20
-54.545454545454376
10
0
20
-68.181818181817988
10
4.4000000000000004
20
-68.181818181817988
10
4.4000000000000004
20
-81.818181818181586
10
0
20
-81.818181818181586
10
0
20
-95.454545454545197
10
4.4000000000000004
20
-95.454545454545197
10
4.4000000000000004
20
-109.0909090909088
10
0
20
-109.0909090909088
10
0
20
-122.72727272727241
10
4.4000000000000004
20
-122.72727272727241
10
4.4000000000000004
20
-136.363636363636
10
0
20
-136.363636363636
10
0
20
-149.9999999999996
10
17.888888888888889
20
-149.9999999999996
10
17.888888888888889
20
-145.59999999999962
10
35.777777777777771
20
-145.59999999999962
10
35.777777777777771
20
-149.9999999999996
10
53.666666666666671
20
-149.9999999999996
10
53.666666666666671
20
-145.59999999999962
10
71.555555555555543
20
-145.59999999999962
10
71.555555555555543
20
-149.9999999999996
10
89.444444444444443
20
-149.9999999999996
10
89.444444444444443
20
-145.59999999999962
10
107.33333333333334
20
-145.59999999999962
10
107.33333333333334
20
-149.9999999999996
10
125.22222222222224
20
-149.9999999999996
10
125.22222222222224
20
-145.59999999999962
10
143.11111111111111
20
-145.59999999999962
10
143.11111111111111
20
-149.9999999999996
10
161
20
-149.9999999999996
10
161
20
-136.363636363636
10
156.60000000000002
20
-136.363636363636
10
156.60000000000002
20
-122.72727272727241
10
161
20
-122.72727272727241
10
161
20
-109.0909090909088
10
156.60000000000002
20
-109.0909090909088
10
156.60000000000002
20
-95.454545454545197
10
161
20
-95.454545454545197
10
161
20
-81.818181818181586
10
156.60000000000002
20
-81.818181818181586
10
156.60000000000002
20
-68.181818181817988
10
161
20
-68.181818181817988
10
161
20
-54.545454545454376
10
156.60000000000002
20
-54.545454545454376
10
156.60000000000002
20
-40.909090909090779
10
161
20
-40.909090909090779
10
161
20
-27.272727272727177
10
156.60000000000002
20
-27.272727272727177
10
156.60000000000002
20
-13.636363636363578
10
161
20
-13.63636363636358
10
161
20
1.9984014443252818e-14
10
143.11111111111111
20
1.7763568394002505e-14
10
143.11111111111111
20
-4.3999999999999666
10
125.22222222222224
20
-4.3999999999999595
10
125.22222222222224
20
2.4980018054066022e-14
10
107.33333333333334
20
1.7763568394002505e-14
10
107.33333333333334
20
-4.3999999999999666
10
89.444444444444443
20
-4.3999999999999595
10
89.444444444444443
20
2.4980018054066022e-14
10
71.555555555555543
20
1.7763568394002505e-14
10
71.555555555555543
20
-4.3999999999999666
10
53.666666666666671
20
-4.3999999999999595
10
53.666666666666671
20
2.4980018054066022e-14
10
35.777777777777771
20
1.7763568394002505e-14
10
35.777777777777771
20
-4.3999999999999666
0
LWPOLYLINE
5
177
100
AcDbEntity
8
0
100
AcDbPolyline
90
4
70
1
43
0.0
10
53.666666666666679
20
-182.49999999999969
10
47.666666666666693
20
-182.49999999999969
10
47.666666666666686
20
-176.49999999999966
10
53.666666666666671
20
-176.49999999999966
0
LWPOLYLINE
5
178
100
AcDbEntity
8
0
100
AcDbPolyline
90
4
70
1
43
0.0
10
61.333333333333336
20
-182.49999999999969
10
55.33333333333335
20
-182.49999999999969
10
55.333333333333343
20
-176.49999999999966
10
61.333333333333329
20
-176.49999999999966
0
LWPOLYLINE
5
179
100
AcDbEntity
8
0
100
AcDbPolyline
90
4
70
1
43
0.0
10
69
20
-182.49999999999969
10
63.000000000000007
20
-182.49999999999969
10
63.000000000000007
20
-176.49999999999966
10
69
20
-176.49999999999966
0
LWPOLYLINE
5
180
100
AcDbEntity
8
0
100
AcDbPolyline
90
4
70
1
43
0.0
10
76.666666666666657
20
-182.49999999999969
10
70.666666666666671
20
-182.49999999999969
10
70.666666666666671
20
-176.49999999999966
10
76.666666666666657
20
-176.49999999999966
0
LWPOLYLINE
5
181
100
AcDbEntity
8
0
100
AcDbPolyline
90
4
70
1
43
0.0
10
84.333333333333314
20
-182.49999999999969
10
78.333333333333329
20
-182.49999999999969
10
78.333333333333314
20
-176.49999999999966
10
84.333333333333314
20
-176.49999999999966
0
LWPOLYLINE
5
182
100
AcDbEntity
8
0
100
AcDbPolyline
90
4
70
1
43
0.0
10
91.999999999999972
20
-182.49999999999969
10
85.999999999999972
20
-182.49999999999969
10
86
20
-176.49999999999966
10
92
20
-176.49999999999966
0
LWPOLYLINE
5
183
100
AcDbEntity
8
0
100
AcDbPolyline
90
4
70
1
43
0.0
10
99.666666666666629
20
-182.49999999999969
10
93.666666666666629
20
-182.49999999999969
10
93.666666666666629
20
-176.49999999999966
10
99.666666666666629
20
-176.49999999999966
0
LWPOLYLINE
5
184
100
AcDbEntity
8
0
100
AcDbPolyline
90
4
70
1
43
0.0
10
107.33333333333331
20
-182.49999999999969
10
101.33333333333331
20
-182.49999999999969
10
101.33333333333331
20
-176.49999999999966
10
107.33333333333331
20
-176.49999999999966
0
LWPOLYLINE
5
185
100
AcDbEntity
8
0
100
AcDbPolyline
90
4
70
1
43
0.0
10
53.666666666666679
20
-190.35714285714252
10
47.666666666666693
20
-190.35714285714252
10
47.666666666666686
20
-184.35714285714252
10
53.666666666666671
20
-184.35714285714252
0
LWPOLYLINE
5
186
100
AcDbEntity
8
0
100
AcDbPolyline
90
4
70
1
43
0.0
10
61.333333333333336
20
-190.35714285714252
10
55.33333333333335
20
-190.35714285714252
10
55.333333333333343
20
-184.35714285714252
10
61.333333333333329
20
-184.35714285714252
0
LWPOLYLINE
5
187
100
AcDbEntity
8
0
100
AcDbPolyline
90
4
70
1
43
0.0
10
69
20
-190.35714285714252
10
63.000000000000007
20
-190.35714285714252
10
63.000000000000007
20
-184.35714285714252
10
69
20
-184.35714285714252
0
LWPOLYLINE
5
188
100
AcDbEntity
8
0
100
AcDbPolyline
90
4
70
1
43
0.0
10
76.666666666666657
20
-190.35714285714252
10
70.666666666666671
20
-190.35714285714252
10
70.666666666666671
20
-184.35714285714252
10
76.666666666666657
20
-184.35714285714252
0
LWPOLYLINE
5
189
100
AcDbEntity
8
0
100
AcDbPolyline
90
4
70
1
43
0.0
10
84.333333333333314
20
-190.35714285714252
10
78.333333333333329
20
-190.35714285714252
10
78.333333333333314
20
-184.35714285714252
10
84.333333333333314
20
-184.35714285714252
0
LWPOLYLINE
5
190
100
AcDbEntity
8
0
100
AcDbPolyline
90
4
70
1
43
0.0
10
91.999999999999972
20
-190.35714285714252
10
85.999999999999972
20
-190.35714285714252
10
86
20
-184.35714285714252
10
92
20
-184.35714285714252
0
LWPOLYLINE
5
191
100
AcDbEntity
8
0
100
AcDbPolyline
90
4
70
1
43
0.0
10
99.666666666666629
20
-190.35714285714252
10
93.666666666666629
20
-190.35714285714252
10
93.666666666666629
20
-184.35714285714252
10
99.666666666666629
20
-184.35714285714252
0
LWPOLYLINE
5
192
100
AcDbEntity
8
0
100
AcDbPolyline
90
4
70
1
43
0.0
10
107.33333333333331
20
-190.35714285714252
10
101.33333333333331
20
-190.35714285714252
10
101.33333333333331
20
-184.35714285714252
10
107.33333333333331
20
-184.35714285714252
0
LWPOLYLINE
5
193
100
AcDbEntity
8
0
100
AcDbPolyline
90
4
70
1
43
0.0
10
53.666666666666679
20
-198.21428571428538
10
47.666666666666693
20
-198.21428571428538
10
47.666666666666686
20
-192.21428571428538
10
53.666666666666671
20
-192.21428571428538
0
LWPOLYLINE
5
194
100
AcDbEntity
8
0
100
AcDbPolyline
90
4
70
1
43
0.0
10
61.333333333333336
20
-198.21428571428538
10
55.33333333333335
20
-198.21428571428538
10
55.333333333333343
20
-192.21428571428538
10
61.333333333333329
20
-192.21428571428538
0
LWPOLYLINE
5
195
100
AcDbEntity
8
0
100
AcDbPolyline
90
4
70
1
43
0.0
10
69
20
-198.21428571428538
10
63.000000000000007
20
-198.21428571428538
10
63.000000000000007
20
-192.21428571428538
10
69
20
-192.21428571428538
0
LWPOLYLINE
5
196
100
AcDbEntity
8
0
100
AcDbPolyline
90
4
70
1
43
0.0
10
76.666666666666657
20
-198.21428571428538
10
70.666666666666671
20
-198.21428571428538
10
70.666666666666671
20
-192.21428571428538
10
76.666666666666657
20
-192.21428571428538
0
LWPOLYLINE
5
197
100
AcDbEntity
8
0
100
AcDbPolyline
90
4
70
1
43
0.0
10
84.333333333333314
20
-198.21428571428538
10
78.333333333333329
20
-198.21428571428538
10
78.333333333333314
20
-192.21428571428538
10
84.333333333333314
20
-192.21428571428538
0
LWPOLYLINE
5
198
100
AcDbEntity
8
0
100
AcDbPolyline
90
4
70
1
43
0.0
10
91.999999999999972
20
-198.21428571428538
10
85.999999999999972
20
-198.21428571428538
10
86
20
-192.21428571428538
10
92
20
-192.21428571428538
0
LWPOLYLINE
5
199
100
AcDbEntity
8
0
100
AcDbPolyline
90
4
70
1
43
0.0
10
99.666666666666629
20
-198.21428571428538
10
93.666666666666629
20
-198.21428571428538
10
93.666666666666629
20
-192.21428571428538
10
99.666666666666629
20
-192.21428571428538
0
LWPOLYLINE
5
200
100
AcDbEntity
8
0
100
AcDbPolyline
90
4
70
1
43
0.0
10
107.33333333333331
20
-198.21428571428538
10
101.33333333333331
20
-198.21428571428538
10
101.33333333333331
20
-192.21428571428538
10
107.33333333333331
20
-192.21428571428538
0
LWPOLYLINE
5
201
100
AcDbEntity
8
0
100
AcDbPolyline
90
4
70
1
43
0.0
10
53.666666666666679
20
-206.07142857142821
10
47.666666666666693
20
-206.07142857142821
10
47.666666666666686
20
-200.07142857142821
10
53.666666666666671
20
-200.07142857142821
0
LWPOLYLINE
5
202
100
AcDbEntity
8
0
100
AcDbPolyline
90
4
70
1
43
0.0
10
61.333333333333336
20
-206.07142857142821
10
55.33333333333335
20
-206.07142857142821
10
55.333333333333343
20
-200.07142857142821
10
61.333333333333329
20
-200.07142857142821
0
LWPOLYLINE
5
203
100
AcDbEntity
8
0
100
AcDbPolyline
90
4
70
1
43
0.0
10
69
20
-206.07142857142821
10
63.000000000000007
20
-206.07142857142821
10
63.000000000000007
20
-200.07142857142821
10
69
20
-200.07142857142821
0
LWPOLYLINE
5
204
100
AcDbEntity
8
0
100
AcDbPolyline
90
4
70
1
43
0.0
10
76.666666666666657
20
-206.07142857142821
10
70.666666666666671
20
-206.07142857142821
10
70.666666666666671
20
-200.07142857142821
10
76.666666666666657
20
-200.07142857142821
0
LWPOLYLINE
5
205
100
AcDbEntity
8
0
100
AcDbPolyline
90
4
70
1
43
0.0
10
84.333333333333314
20
-206.07142857142821
10
78.333333333333329
20
-206.07142857142821
10
78.333333333333314
20
-200.07142857142821
10
84.333333333333314
20
-200.07142857142821
0
LWPOLYLINE
5
206
100
AcDbEntity
8
0
100
AcDbPolyline
90
4
70
1
43
0.0
10
91.999999999999972
20
-206.07142857142821
10
85.999999999999972
20
-206.07142857142821
10
86
20
-200.07142857142821
10
92
20
-200.07142857142821
0
LWPOLYLINE
5
207
100
AcDbEntity
8
0
100
AcDbPolyline
90
4
70
1
43
0.0
10
99.666666666666629
20
-206.07142857142821
10
93.666666666666629
20
-206.07142857142821
10
93.666666666666629
20
-200.07142857142821
10
99.666666666666629
20
-200.07142857142821
0
LWPOLYLINE
5
208
100
AcDbEntity
8
0
100
AcDbPolyline
90
4
70
1
43
0.0
10
107.33333333333331
20
-206.07142857142821
10
101.33333333333331
20
-206.07142857142821
10
101.33333333333331
20
-200.07142857142821
10
107.33333333333331
20
-200.07142857142821
0
LWPOLYLINE
5
209
100
AcDbEntity
8
0
100
AcDbPolyline
90
4
70
1
43
0.0
10
53.666666666666679
20
-213.92857142857108
10
47.666666666666693
20
-213.92857142857108
10
47.666666666666686
20
-207.9285714285711
10
53.666666666666671
20
-207.9285714285711
0
LWPOLYLINE
5
210
100
AcDbEntity
8
0
100
AcDbPolyline
90
4
70
1
43
0.0
10
61.333333333333336
20
-213.92857142857108
10
55.33333333333335
20
-213.92857142857108
10
55.333333333333343
20
-207.9285714285711
10
61.333333333333329
20
-207.9285714285711
0
LWPOLYLINE
5
211
100
AcDbEntity
8
0
100
AcDbPolyline
90
4
70
1
43
0.0
10
69
20
-213.92857142857108
10
63.000000000000007
20
-213.92857142857108
10
63.000000000000007
20
-207.9285714285711
10
69
20
-207.9285714285711
0
LWPOLYLINE
5
212
100
AcDbEntity
8
0
100
AcDbPolyline
90
4
70
1
43
0.0
10
76.666666666666657
20
-213.92857142857108
10
70.666666666666671
20
-213.92857142857108
10
70.666666666666671
20
-207.9285714285711
10
76.666666666666657
20
-207.9285714285711
0
LWPOLYLINE
5
213
100
AcDbEntity
8
0
100
AcDbPolyline
90
4
70
1
43
0.0
10
84.333333333333314
20
-213.92857142857108
10
78.333333333333329
20
-213.92857142857108
10
78.333333333333314
20
-207.9285714285711
10
84.333333333333314
20
-207.9285714285711
0
LWPOLYLINE
5
214
100
AcDbEntity
8
0
100
AcDbPolyline
90
4
70
1
43
0.0
10
91.999999999999972
20
-213.92857142857108
10
85.999999999999972
20
-213.92857142857108
10
86
20
-207.9285714285711
10
92
20
-207.9285714285711
0
LWPOLYLINE
5
215
100
AcDbEntity
8
0
100
AcDbPolyline
90
4
70
1
43
0.0
10
99.666666666666629
20
-213.92857142857108
10
93.666666666666629
20
-213.92857142857108
10
93.666666666666629
20
-207.9285714285711
10
99.666666666666629
20
-207.9285714285711
0
LWPOLYLINE
5
216
100
AcDbEntity
8
0
100
AcDbPolyline
90
4
70
1
43
0.0
10
107.33333333333331
20
-213.92857142857108
10
101.33333333333331
20
-213.92857142857108
10
101.33333333333331
20
-207.9285714285711
10
107.33333333333331
20
-207.9285714285711
0
LWPOLYLINE
5
217
100
AcDbEntity
8
0
100
AcDbPolyline
90
4
70
1
43
0.0
10
53.666666666666679
20
-221.78571428571394
10
47.666666666666693
20
-221.78571428571394
10
47.666666666666686
20
-215.78571428571394
10
53.666666666666671
20
-215.78571428571394
0
LWPOLYLINE
5
218
100
AcDbEntity
8
0
100
AcDbPolyline
90
4
70
1
43
0.0
10
61.333333333333336
20
-221.78571428571394
10
55.33333333333335
20
-221.78571428571394
10
55.333333333333343
20
-215.78571428571394
10
61.333333333333329
20
-215.78571428571394
0
LWPOLYLINE
5
219
100
AcDbEntity
8
0
100
AcDbPolyline
90
4
70
1
43
0.0
10
69
20
-221.78571428571394
10
63.000000000000007
20
-221.78571428571394
10
63.000000000000007
20
-215.78571428571394
10
69
20
-215.78571428571394
0
LWPOLYLINE
5
220
100
AcDbEntity
8
0
100
AcDbPolyline
90
4
70
1
43
0.0
10
76.666666666666657
20
-221.78571428571394
10
70.666666666666671
20
-221.78571428571394
10
70.666666666666671
20
-215.78571428571394
10
76.666666666666657
20
-215.78571428571394
0
LWPOLYLINE
5
221
100
AcDbEntity
8
0
100
AcDbPolyline
90
4
70
1
43
0.0
10
84.333333333333314
20
-221.78571428571394
10
78.333333333333329
20
-221.78571428571394
10
78.333333333333314
20
-215.78571428571394
10
84.333333333333314
20
-215.78571428571394
0
LWPOLYLINE
5
222
100
AcDbEntity
8
0
100
AcDbPolyline
90
4
70
1
43
0.0
10
91.999999999999972
20
-221.78571428571394
10
85.999999999999972
20
-221.78571428571394
10
86
20
-215.78571428571394
10
92
20
-215.78571428571394
0
LWPOLYLINE
5
223
100
AcDbEntity
8
0
100
AcDbPolyline
90
4
70
1
43
0.0
10
99.666666666666629
20
-221.78571428571394
10
93.666666666666629
20
-221.78571428571394
10
93.666666666666629
20
-215.78571428571394
10
99.666666666666629
20
-215.78571428571394
0
LWPOLYLINE
5
224
100
AcDbEntity
8
0
100
AcDbPolyline
90
4
70
1
43
0.0
10
107.33333333333331
20
-221.78571428571394
10
101.33333333333331
20
-221.78571428571394
10
101.33333333333331
20
-215.78571428571394
10
107.33333333333331
20
-215.78571428571394
0
LWPOLYLINE
5
225
100
AcDbEntity
8
0
100
AcDbPolyline
90
4
70
1
43
0.0
10
53.666666666666679
20
-229.6428571428568
10
47.666666666666693
20
-229.6428571428568
10
47.666666666666686
20
-223.64285714285677
10
53.666666666666671
20
-223.64285714285677
0
LWPOLYLINE
5
226
100
AcDbEntity
8
0
100
AcDbPolyline
90
4
70
1
43
0.0
10
61.333333333333336
20
-229.6428571428568
10
55.33333333333335
20
-229.6428571428568
10
55.333333333333343
20
-223.64285714285677
10
61.333333333333329
20
-223.64285714285677
0
LWPOLYLINE
5
227
100
AcDbEntity
8
0
100
AcDbPolyline
90
4
70
1
43
0.0
10
69
20
-229.6428571428568
10
63.000000000000007
20
-229.6428571428568
10
63.000000000000007
20
-223.64285714285677
10
69
20
-223.64285714285677
0
LWPOLYLINE
5
228
100
AcDbEntity
8
0
100
AcDbPolyline
90
4
70
1
43
0.0
10
76.666666666666657
20
-229.6428571428568
10
70.666666666666671
20
-229.6428571428568
10
70.666666666666671
20
-223.64285714285677
10
76.666666666666657
20
-223.64285714285677
0
LWPOLYLINE
5
229
100
AcDbEntity
8
0
100
AcDbPolyline
90
4
70
1
43
0.0
10
84.333333333333314
20
-229.6428571428568
10
78.333333333333329
20
-229.6428571428568
10
78.333333333333314
20
-223.64285714285677
10
84.333333333333314
20
-223.64285714285677
0
LWPOLYLINE
5
230
100
AcDbEntity
8
0
100
AcDbPolyline
90
4
70
1
43
0.0
10
91.999999999999972
20
-229.6428571428568
10
85.999999999999972
20
-229.6428571428568
10
86
20
-223.64285714285677
10
92
20
-223.64285714285677
0
LWPOLYLINE
5
231
100
AcDbEntity
8
0
100
AcDbPolyline
90
4
70
1
43
0.0
10
99.666666666666629
20
-229.6428571428568
10
93.666666666666629
20
-229.6428571428568
10
93.666666666666629
20
-223.64285714285677
10
99.666666666666629
20
-223.64285714285677
0
LWPOLYLINE
5
232
100
AcDbEntity
8
0
100
AcDbPolyline
90
4
70
1
43
0.0
10
107.33333333333331
20
-229.6428571428568
10
101.33333333333331
20
-229.6428571428568
10
101.33333333333331
20
-223.64285714285677
10
107.33333333333331
20
-223.64285714285677
0
LWPOLYLINE
5
233
100
AcDbEntity
8
0
100
AcDbPolyline
90
4
70
1
43
0.0
10
53.666666666666679
20
-237.49999999999966
10
47.666666666666693
20
-237.49999999999966
10
47.666666666666686
20
-231.49999999999963
10
53.666666666666671
20
-231.49999999999963
0
LWPOLYLINE
5
234
100
AcDbEntity
8
0
100
AcDbPolyline
90
4
70
1
43
0.0
10
61.333333333333336
20
-237.49999999999966
10
55.33333333333335
20
-237.49999999999966
10
55.333333333333343
20
-231.49999999999963
10
61.333333333333329
20
-231.49999999999963
0
LWPOLYLINE
5
235
100
AcDbEntity
8
0
100
AcDbPolyline
90
4
70
1
43
0.0
10
69
20
-237.49999999999966
10
63.000000000000007
20
-237.49999999999966
10
63.000000000000007
20
-231.49999999999963
10
69
20
-231.49999999999963
0
LWPOLYLINE
5
236
100
AcDbEntity
8
0
100
AcDbPolyline
90
4
70
1
43
0.0
10
76.666666666666657
20
-237.49999999999966
10
70.666666666666671
20
-237.49999999999966
10
70.666666666666671
20
-231.49999999999963
10
76.666666666666657
20
-231.49999999999963
0
LWPOLYLINE
5
237
100
AcDbEntity
8
0
100
AcDbPolyline
90
4
70
1
43
0.0
10
84.333333333333314
20
-237.49999999999966
10
78.333333333333329
20
-237.49999999999966
10
78.333333333333314
20
-231.49999999999963
10
84.333333333333314
20
-231.49999999999963
0
LWPOLYLINE
5
238
100
AcDbEntity
8
0
100
AcDbPolyline
90
4
70
1
43
0.0
10
91.999999999999972
20
-237.49999999999966
10
85.999999999999972
20
-237.49999999999966
10
86
20
-231.49999999999963
10
92
20
-231.49999999999963
0
LWPOLYLINE
5
239
100
AcDbEntity
8
0
100
AcDbPolyline
90
4
70
1
43
0.0
10
99.666666666666629
20
-237.49999999999966
10
93.666666666666629
20
-237.49999999999966
10
93.666666666666629
20
-231.49999999999963
10
99.666666666666629
20
-231.49999999999963
0
LWPOLYLINE
5
240
100
AcDbEntity
8
0
100
AcDbPolyline
90
4
70
1
43
0.0
10
101.33333333333331
20
-231.49999999999963
10
107.33333333333331
20
-231.49999999999963
10
107.33333333333331
20
-237.49999999999966
10
101.33333333333331
20
-237.49999999999966
0
LWPOLYLINE
5
241
100
AcDbEntity
8
0
100
AcDbPolyline
90
36
70
1
43
0.0
10
156.59999999999994
20
-176.99999999999966
10
156.59999999999994
20
-159.39999999999966
10
143.11111111111106
20
-159.39999999999966
10
143.11111111111106
20
-154.99999999999969
10
125.22222222222219
20
-154.99999999999969
10
125.22222222222219
20
-159.39999999999966
10
107.33333333333331
20
-159.39999999999966
10
107.33333333333331
20
-154.99999999999969
10
89.444444444444429
20
-154.99999999999969
10
89.444444444444429
20
-159.39999999999966
10
71.555555555555543
20
-159.39999999999966
10
71.555555555555543
20
-154.99999999999969
10
53.666666666666679
20
-154.99999999999969
10
53.666666666666679
20
-159.39999999999966
10
35.7777777777778
20
-159.39999999999966
10
35.7777777777778
20
-154.99999999999969
10
17.888888888888928
20
-154.99999999999969
10
17.888888888888928
20
-159.39999999999966
10
4.4000000000000439
20
-159.39999999999966
10
4.4000000000000474
20
-176.99999999999966
10
5.3290705182007514e-14
20
-176.99999999999966
10
5.3290705182007514e-14
20
-198.99999999999966
10
4.4000000000000465
20
-198.99999999999966
10
4.4000000000000474
20
-220.99999999999966
10
5.3290705182007514e-14
20
-220.99999999999966
10
5.3290705182007514e-14
20
-242.99999999999966
10
4.4000000000000465
20
-242.99999999999966
10
4.4000000000000501
20
-264.99999999999966
10
156.59999999999994
20
-264.99999999999966
10
156.59999999999994
20
-242.99999999999966
10
160.99999999999991
20
-242.99999999999966
10
160.99999999999994
20
-220.99999999999966
10
156.59999999999994
20
-220.99999999999966
10
156.59999999999994
20
-198.99999999999966
10
160.99999999999991
20
-198.99999999999966
10
160.99999999999994
20
-176.99999999999966
0
CIRCLE
5
242
100
AcDbEntity
8
0
100
AcDbCircle
10
-78.333333333333314
20
-37.499999999999375
30
0
40
7.5000000000000133
210
0
220
-0
230
1
0
CIRCLE
5
243
100
AcDbEntity
8
0
100
AcDbCircle
10
-78.333333333333314
20
-62.499999999999417
30
0
40
7.5000000000000133
210
0
220
-0
230
1
0
CIRCLE
5
244
100
AcDbEntity
8
0
100
AcDbCircle
10
-78.333333333333314
20
-87.49999999999946
30
0
40
7.5000000000000133
210
0
220
-0
230
1
0
CIRCLE
5
245
100
AcDbEntity
8
0
100
AcDbCircle
10
-78.333333333333314
20
-112.4999999999995
30
0
40
7.5000000000000133
210
0
220
-0
230
1
0
LWPOLYLINE
5
246
100
AcDbEntity
8
0
100
AcDbPolyline
90
40
70
1
43
0.0
10
-92.999999999999986
20
-4.3999999999993022
10
-92.999999999999986
20
7.0055072853847378e-13
10
-114.99999999999999
20
6.9277916736609768e-13
10
-114.99999999999999
20
-149.99999999999957
10
-92.999999999999986
20
-149.99999999999957
10
-92.999999999999986
20
-145.59999999999957
10
-70.999999999999972
20
-145.59999999999957
10
-70.999999999999972
20
-149.99999999999957
10
-48.999999999999986
20
-149.99999999999957
10
-48.999999999999993
20
-145.59999999999957
10
-26.999999999999993
20
-145.59999999999957
10
-26.999999999999993
20
-149.99999999999957
10
-9.3999999999999968
20
-149.99999999999957
10
-9.399999999999995
20
-136.36363636363592
10
-4.9999999999999964
20
-136.36363636363592
10
-4.9999999999999964
20
-122.72727272727225
10
-9.399999999999995
20
-122.72727272727225
10
-9.399999999999995
20
-109.09090909090858
10
-4.9999999999999964
20
-109.09090909090861
10
-4.9999999999999964
20
-95.454545454544956
10
-9.399999999999995
20
-95.454545454544927
10
-9.399999999999995
20
-81.818181818181273
10
-4.9999999999999964
20
-81.818181818181273
10
-4.9999999999999964
20
-68.181818181817604
10
-9.399999999999995
20
-68.181818181817619
10
-9.399999999999995
20
-54.545454545453936
10
-4.9999999999999964
20
-54.545454545453929
10
-4.9999999999999964
20
-40.909090909090267
10
-9.399999999999995
20
-40.909090909090281
10
-9.399999999999995
20
-27.27272727272662
10
-4.9999999999999964
20
-27.272727272726627
10
-4.9999999999999964
20
-13.636363636362969
10
-9.399999999999995
20
-13.636363636362958
10
-9.399999999999995
20
6.9944050551384862e-13
10
-26.999999999999993
20
6.9277916736609768e-13
10
-26.999999999999993
20
-4.3999999999993102
10
-48.999999999999993
20
-4.3999999999993022
10
-48.999999999999993
20
7.0055072853847378e-13
10
-70.999999999999972
20
6.9277916736609768e-13
10
-70.999999999999972
20
-4.3999999999993102
0
ENDSEC
0
SECTION
2
OBJECTS
0
DICTIONARY
5
C
100
AcDbDictionary
3
ACAD_GROUP
350
D
3
ACAD_MLINESTYLE
350
17
0
DICTIONARY
5
D
100
AcDbDictionary
0
DICTIONARY
5
1A
330
C
100
AcDbDictionary
0
DICTIONARY
5
17
100
AcDbDictionary
0
ENDSEC
0
EOF
